<svg height="320.361638" viewBox="0 0 57.293 58.226" width="312.147237" xmlns="http://www.w3.org/2000/svg" xmlns:xlink="http://www.w3.org/1999/xlink"><clipPath id="a"><path d="m0 0h595.27v841.89h-595.27z"/></clipPath><g stroke-width="1.1634" transform="matrix(.85954 0 0 .85954 .49185 .73778)"><path d="m64.91 18.176c0-3.4102-2.7773-6.1875-6.1875-6.1875-.43359 0-.85156.04297-1.2578.12891-4.9492-7.3086-13.316-12.117-22.809-12.117-8.543 0-16.176 3.8984-21.223 10.008l-.03125.0039-2.7617 1.4727-1.3477 2.7383.34375 3.0273.76953 1.3477-2.8867 2.1719-1.7188 2.7773-1.5391 2.4961.09375.72656-1.9688 2.8984-.65625 7.4375-1.7305 2.5742.29688 3.25 3.5195 2.7422 3.4336-3.5.01172-2.1289 1.1406-4.25c3.5117 11.16 13.938 19.25 26.254 19.25 15.203 0 27.523-12.32 27.523-27.52 0-1.3711-.10156-2.7148-.29688-4.0312 1.8125-1.082 3.0273-3.0586 3.0273-5.3164" fill="#fff"/><path d="m22.75 65.996c-1.2852 0-1.9688-.57812-2.3438-1.2891l.92969-.80859c.22656.44141.65234.89453 1.4062.89453.60547 0 1.0547-.29688 1.0547-.82031 0-.67969-.50391-.95703-1.293-.95703-.46094 0-.82031.06641-1.0039.10156v-.80859l1.3711-1.6367h-2.1172v-1.1602h4.4609v.02734l-1.9688 2.4375v.01953c1.168.09375 1.9219.76172 1.9219 1.957 0 1.2891-1.0117 2.043-2.418 2.043"/><path d="m26.801 65.949c-.46875 0-.78125-.32031-.78125-.78906 0-.46094.32031-.77344.78125-.77344.45703 0 .78125.3125.78125.77344s-.32422.78906-.78125.78906"/><path d="m31.602 64.625h2.3164v1.2344h-3.6875v-6.3477h1.3711z"/><path d="m36.078 65.859h-1.3711v-6.3477h1.3711z"/><path d="m41.973 65.48c-.40234.28516-.94531.51562-1.8281.51562-1.9062 0-3.1836-1.2969-3.1836-3.293 0-2.0234 1.3711-3.3281 3.2852-3.3281 1.168 0 1.8359.40625 2.3555 1.0781l-.91406.85156c-.32031-.42188-.72656-.70703-1.4141-.70703-1.1211 0-1.9141.76563-1.9141 2.0859 0 1.2422.75391 2.0703 1.875 2.0703.58984 0 .9375-.12891 1.1992-.3125v-.91016h-1.3359v-1.0938h2.5469v3.4219h-.09375z"/><path d="m45.375 63.523h1.4375l-.70703-1.9336h-.01953zm.03125-3.4492-.24219-.5625h1.4531l2.5469 6.3477h-1.4883l-.46094-1.2422h-2.2422l-.46094 1.2422h-1.4336z"/><path d="m42.668 49.211.82422 2.2227c3.8047-1.4062 7.1836-3.6953 9.8867-6.6211l-1.7422-1.6094c-2.4492 2.6523-5.5156 4.7305-8.9688 6.0078" fill="#fc0"/><path d="m34.656 50.637c-2.1719 0-4.2734-.30078-6.2656-.85938l-.64453 2.2812c2.1992.61719 4.5156.94922 6.9102.94922 2.4023 0 4.7266-.33203 6.9297-.95312l-.64453-2.2812c-1.9961.5625-4.1055.86328-6.2852.86328" fill="#d1070f"/><path d="m17.688 43.215-1.7383 1.6094c2.7031 2.9219 6.0859 5.2109 9.8945 6.6172l.82031-2.2227c-3.457-1.2773-6.5234-3.3516-8.9766-6.0039" fill="#00111c"/><g fill="#858585"><path d="m14.648 43.305 1.8594-1.4688c-2.3281-2.9531-3.957-6.4844-4.625-10.348l-2.2422.91016c.78906 4.0625 2.5391 7.7773 5.0078 10.906"/><path d="m34.656 4.4102c7.9805 0 15.012 4.0391 19.164 10.188.47656-.64844 1.0742-1.1992 1.7656-1.6172-4.6055-6.6133-12.262-10.941-20.93-10.941-7.0898 0-13.508 2.8984-18.129 7.5781l1.9766 1.3789c4.1641-4.0742 9.8672-6.5859 16.152-6.5859"/><path d="m57.52 24.117c.16406 1.1133.25 2.25.25 3.4062 0 5.3984-1.8477 10.367-4.9531 14.301l1.8633 1.4688c3.418-4.3398 5.4609-9.8164 5.4609-15.77 0-1.1523-.07813-2.2891-.22656-3.4023-.38672.07813-.78516.11719-1.1914.11719-.41406 0-.8125-.04297-1.2031-.12109"/></g><path d="m13.977 18.797-1.0586-2.082h.64453l.85938-1.043.29687.71484-.38672.49219.48438.75-.32422.48438.41406.44922.16016.87891zm44.746-4.8164c-2.3164 0-4.1914 1.875-4.1914 4.1914 0 .09766.0039.19922.01172.29688l-.72656.20312-1.168.59375-4.582.48438-3.4219 2.5312-1.418-.03516.66797-.72656-.58984-1.2578-3.7148 1.2812.75391.24609.21094.70703-4.7812 1.9883-1.0508-.08594-2.2891.76172 1.0234-1.6406c-1.3164.34375-4.1953 1.1133-4.1953 1.1133l-2.7031.42578-.58984-.04297-1.7617-1.0547-.53125-1.8672 2.3672-1.6211-.02344-.44922.91797-.16406 4.4492.30859.50391.53906 1.1836.42969.89453-.10938-.14453-.5.68359-.78906-.96875-1.7578-1.793.28906-5.4609-1.2773-7.5703.84375-.12109-1.5664-.69922-1.2578.22656-1.1445-.94922-1.5-1.4922-.61719-1.7656.22266-1.7734 1.0938-.64453 1.4805.23047 2.0273 1.5078 2.6484-.14063.03906-.9375.70312.29297.39453.69141.27344-1.3164.76953-.83984-.55469-1.8438 1.3828-1.5039 2.4375.81641.15234-3.2266 4.375-.18359.64844-.57422.68359-.64453 7.3125-1.6133 2.3984.14453 1.5781 1.2891 1.0039 1.4961-1.5273.0078-1.6172 2.8477-8.1875 1.3281-1.1133.37891.17969 3.457-2.0117 3.8477 2.2109 3.9219 3.4805 2.6953 1.5938 6.1875 5.3711 1.1914-.67969 1.3945.36719 2.2109-.46094.82812-.69141 3.3086-2.4844 5.5469.875 1.0078-.31641.33594-.70312-.12109-.83984-1.0195-.73828-4.2383-1.5078-1.4375-.70313-1.1719.17578-.73047.68359-.32812 1.1484-1.668.3125-.88281-.50391.23438-.69922-.875-.98438 2.543-1.8789-.03516-.65625 4.3164-3.543 2.7773-2.2266 3.2305-.76172 6.3789-3.0898 1.457.70703 1.2344-.21484.69141-.4375c.73047.62891 1.6875 1.0117 2.7305 1.0117 2.3125 0 4.1875-1.875 4.1875-4.1875 0-2.3164-1.875-4.1914-4.1875-4.1914" fill="#00111c"/></g><g clip-path="url(#a)" fill="none" stroke-miterlimit="10" transform="translate(-28.133 -28.629)"><path d="m.0002.0004h-15m622.28 0h15m-622.28-841.89h-15m622.28 0h15m-616.28 847.89v15m0-868.89v-15m595.28 868.89v15m0-868.89v-15" stroke="#fff" stroke-width="1.25" transform="matrix(1 0 0 -1 -6.0002 .0004)"/><path d="m.0002.0004h-15m622.28 0h15m-622.28-841.89h-15m622.28 0h15m-616.28 847.89v15m0-868.89v-15m595.28 868.89v15m0-868.89v-15" stroke="#000" stroke-width=".25" transform="matrix(1 0 0 -1 -6.0002 .0004)"/></g></svg>