<?xml version="1.0" encoding="UTF-8"?><svg id="Layer_1" xmlns="http://www.w3.org/2000/svg" xmlns:xlink="http://www.w3.org/1999/xlink" viewBox="0 0 135.75 225.9"><defs><style>.cls-1{fill:none;}.cls-2{opacity:.05;}.cls-2,.cls-3,.cls-4,.cls-5,.cls-6,.cls-7{isolation:isolate;}.cls-3{opacity:.4;}.cls-4{opacity:.6;}.cls-5{opacity:.2;}.cls-6{opacity:.8;}.cls-8{fill:url(#radial-gradient-6);}.cls-9{fill:url(#radial-gradient-5);}.cls-10{fill:url(#radial-gradient-4);}.cls-11{fill:url(#radial-gradient-3);}.cls-12{fill:url(#radial-gradient-2);}.cls-13{fill:url(#linear-gradient-8);}.cls-14{fill:url(#linear-gradient-7);}.cls-15{fill:url(#linear-gradient-5);}.cls-16{fill:url(#linear-gradient-6);}.cls-17{fill:url(#linear-gradient-9);}.cls-18{fill:url(#linear-gradient-4);}.cls-19{fill:url(#linear-gradient-3);}.cls-20{fill:url(#linear-gradient-2);}.cls-21{fill:url(#radial-gradient);}.cls-22{fill:url(#linear-gradient);}.cls-23{clip-path:url(#clippath-17);}.cls-24{clip-path:url(#clippath-19);}.cls-25{clip-path:url(#clippath-11);}.cls-26{clip-path:url(#clippath-16);}.cls-27{clip-path:url(#clippath-18);}.cls-28{clip-path:url(#clippath-10);}.cls-29{clip-path:url(#clippath-15);}.cls-30{clip-path:url(#clippath-13);}.cls-31{clip-path:url(#clippath-14);}.cls-32{clip-path:url(#clippath-12);}.cls-33{clip-path:url(#clippath-61);}.cls-34{clip-path:url(#clippath-67);}.cls-35{clip-path:url(#clippath-68);}.cls-36{clip-path:url(#clippath-60);}.cls-37{clip-path:url(#clippath-65);}.cls-38{clip-path:url(#clippath-62);}.cls-39{clip-path:url(#clippath-64);}.cls-40{clip-path:url(#clippath-66);}.cls-41{clip-path:url(#clippath-63);}.cls-42{clip-path:url(#clippath-50);}.cls-43{clip-path:url(#clippath-55);}.cls-44{clip-path:url(#clippath-52);}.cls-45{clip-path:url(#clippath-57);}.cls-46{clip-path:url(#clippath-54);}.cls-47{clip-path:url(#clippath-56);}.cls-48{clip-path:url(#clippath-53);}.cls-49{clip-path:url(#clippath-70);}.cls-50{clip-path:url(#clippath-71);}.cls-51{clip-path:url(#clippath-72);}.cls-52{clip-path:url(#clippath-51);}.cls-53{clip-path:url(#clippath-58);}.cls-54{clip-path:url(#clippath-59);}.cls-55{clip-path:url(#clippath-31);}.cls-56{clip-path:url(#clippath-32);}.cls-57{clip-path:url(#clippath-33);}.cls-58{clip-path:url(#clippath-34);}.cls-59{clip-path:url(#clippath-35);}.cls-60{clip-path:url(#clippath-39);}.cls-61{clip-path:url(#clippath-30);}.cls-62{clip-path:url(#clippath-36);}.cls-63{clip-path:url(#clippath-37);}.cls-64{clip-path:url(#clippath-38);}.cls-65{clip-path:url(#clippath-27);}.cls-66{clip-path:url(#clippath-29);}.cls-67{clip-path:url(#clippath-26);}.cls-68{clip-path:url(#clippath-28);}.cls-69{clip-path:url(#clippath-20);}.cls-70{clip-path:url(#clippath-21);}.cls-71{clip-path:url(#clippath-22);}.cls-72{clip-path:url(#clippath-23);}.cls-73{clip-path:url(#clippath-24);}.cls-74{clip-path:url(#clippath-25);}.cls-75{clip-path:url(#clippath-69);}.cls-76{clip-path:url(#clippath-41);}.cls-77{clip-path:url(#clippath-42);}.cls-78{clip-path:url(#clippath-43);}.cls-79{clip-path:url(#clippath-44);}.cls-80{clip-path:url(#clippath-45);}.cls-81{clip-path:url(#clippath-49);}.cls-82{clip-path:url(#clippath-40);}.cls-83{clip-path:url(#clippath-46);}.cls-84{clip-path:url(#clippath-47);}.cls-85{clip-path:url(#clippath-48);}.cls-86{clip-path:url(#clippath-1);}.cls-87{clip-path:url(#clippath-3);}.cls-88{clip-path:url(#clippath-4);}.cls-89{clip-path:url(#clippath-2);}.cls-90{clip-path:url(#clippath-7);}.cls-91{clip-path:url(#clippath-6);}.cls-92{clip-path:url(#clippath-9);}.cls-93{clip-path:url(#clippath-8);}.cls-94{clip-path:url(#clippath-5);}.cls-95{fill:url(#linear-gradient-43);}.cls-96{fill:url(#linear-gradient-40);}.cls-97{fill:url(#linear-gradient-41);}.cls-98{fill:url(#linear-gradient-42);}.cls-99{fill:url(#linear-gradient-45);}.cls-100{fill:url(#linear-gradient-44);}.cls-101{fill:url(#linear-gradient-46);}.cls-102{fill:url(#linear-gradient-10);}.cls-103{fill:url(#linear-gradient-11);}.cls-104{fill:url(#linear-gradient-12);}.cls-105{fill:url(#linear-gradient-13);}.cls-106{fill:url(#linear-gradient-19);}.cls-107{fill:url(#linear-gradient-14);}.cls-108{fill:url(#linear-gradient-21);}.cls-109{fill:url(#linear-gradient-20);}.cls-110{fill:url(#linear-gradient-22);}.cls-111{fill:url(#linear-gradient-23);}.cls-112{fill:url(#linear-gradient-28);}.cls-113{fill:url(#linear-gradient-25);}.cls-114{fill:url(#linear-gradient-32);}.cls-115{fill:url(#linear-gradient-31);}.cls-116{fill:url(#linear-gradient-33);}.cls-117{fill:url(#linear-gradient-30);}.cls-118{fill:url(#linear-gradient-15);}.cls-119{fill:url(#linear-gradient-16);}.cls-120{fill:url(#linear-gradient-17);}.cls-121{fill:url(#linear-gradient-18);}.cls-122{fill:url(#linear-gradient-35);}.cls-123{fill:url(#linear-gradient-34);}.cls-124{fill:url(#linear-gradient-36);}.cls-125{fill:url(#linear-gradient-38);}.cls-126{fill:url(#linear-gradient-27);}.cls-127{fill:url(#linear-gradient-24);}.cls-128{fill:url(#linear-gradient-26);}.cls-129{fill:url(#linear-gradient-29);}.cls-130{fill:url(#linear-gradient-37);}.cls-131{fill:url(#linear-gradient-39);}.cls-132{fill:#baa072;}.cls-133{clip-path:url(#clippath);}</style><clipPath id="clippath"><rect class="cls-1" y=".15" width="135.75" height="225.75"/></clipPath><clipPath id="clippath-1"><rect class="cls-1" y=".15" width="135.75" height="225.75"/></clipPath><clipPath id="clippath-2"><rect class="cls-1" y=".15" width="135.75" height="225.75"/></clipPath><linearGradient id="linear-gradient" x1="-273.1" y1="565.12" x2="-272.1" y2="565.12" gradientTransform="translate(-92687.86 44860.52) rotate(90) scale(164.31 -164.14)" gradientUnits="userSpaceOnUse"><stop offset="0" stop-color="#5f4389"/><stop offset=".28" stop-color="#5f4389"/><stop offset=".35" stop-color="#9f7fdf"/><stop offset=".4" stop-color="#9f7fdf"/><stop offset=".48" stop-color="#a89cdb"/><stop offset=".48" stop-color="#a89cdb"/><stop offset=".57" stop-color="#9f7fdf"/><stop offset=".57" stop-color="#9f7fdf"/><stop offset=".66" stop-color="#5f4389"/><stop offset=".67" stop-color="#5f4389"/><stop offset=".89" stop-color="#230037"/><stop offset="1" stop-color="#230037"/></linearGradient><linearGradient id="linear-gradient-2" x1="-272.52" y1="555.9" x2="-271.52" y2="555.9" gradientTransform="translate(15262.61 22665.71) rotate(120.07) scale(44.03 44) skewX(-.05)" gradientUnits="userSpaceOnUse"><stop offset="0" stop-color="#d9dadb"/><stop offset=".06" stop-color="#d9dadb"/><stop offset=".28" stop-color="#9f7fdf"/><stop offset=".28" stop-color="#9f7fdf"/><stop offset="1" stop-color="#230037"/></linearGradient><linearGradient id="linear-gradient-3" x1="-272.26" y1="558.91" x2="-271.26" y2="558.91" gradientTransform="translate(29683.79 29252.05) rotate(108.66) scale(66.94 66.88) skewX(-.04)" gradientUnits="userSpaceOnUse"><stop offset="0" stop-color="#d9dadb"/><stop offset=".08" stop-color="#d9dadb"/><stop offset=".27" stop-color="#5f4389"/><stop offset=".28" stop-color="#5f4389"/><stop offset=".38" stop-color="#5f4389"/><stop offset=".55" stop-color="#9f7fdf"/><stop offset=".64" stop-color="#5f4389"/><stop offset=".65" stop-color="#5f4389"/><stop offset="1" stop-color="#230037"/></linearGradient><linearGradient id="linear-gradient-4" x1="-271.69" y1="560.03" x2="-270.69" y2="560.03" gradientTransform="translate(40175.93 25054.08) rotate(96.1) scale(76 75.92) skewX(-.01)" gradientUnits="userSpaceOnUse"><stop offset="0" stop-color="#d9dadb"/><stop offset=".05" stop-color="#d9dadb"/><stop offset=".27" stop-color="#5f4389"/><stop offset=".28" stop-color="#5f4389"/><stop offset=".38" stop-color="#5f4389"/><stop offset=".55" stop-color="#9f7fdf"/><stop offset=".64" stop-color="#5f4389"/><stop offset=".65" stop-color="#5f4389"/><stop offset="1" stop-color="#230037"/></linearGradient><linearGradient id="linear-gradient-5" x1="-266.89" y1="565.61" x2="-265.89" y2="565.61" gradientTransform="translate(-15620.61 22665.71) rotate(59.93) scale(44.03 -44) skewX(-.05)" xlink:href="#linear-gradient-2"/><linearGradient id="linear-gradient-6" x1="-269.9" y1="565.91" x2="-268.9" y2="565.91" gradientTransform="translate(-30041.8 29252.05) rotate(71.34) scale(66.94 -66.88) skewX(-.04)" xlink:href="#linear-gradient-3"/><linearGradient id="linear-gradient-7" x1="-271" y1="566.49" x2="-270" y2="566.49" gradientTransform="translate(-40533.93 25054.08) rotate(83.9) scale(76 -75.92) skewX(-.01)" xlink:href="#linear-gradient-4"/><linearGradient id="linear-gradient-8" x1="-272.47" y1="565.74" x2="-271.47" y2="565.74" gradientTransform="translate(-65675.94 31686.78) rotate(90) scale(116.33 -116.21)" gradientUnits="userSpaceOnUse"><stop offset="0" stop-color="#d9dadb"/><stop offset=".1" stop-color="#d9dadb"/><stop offset=".22" stop-color="#5f4389"/><stop offset=".22" stop-color="#5f4389"/><stop offset=".32" stop-color="#5f4389"/><stop offset=".42" stop-color="#9a80d9"/><stop offset=".5" stop-color="#b7a5e3"/><stop offset=".51" stop-color="#b7a5e3"/><stop offset=".58" stop-color="#9a80d9"/><stop offset=".59" stop-color="#9a80d9"/><stop offset=".78" stop-color="#1f0035"/><stop offset="1" stop-color="#1f0035"/></linearGradient><clipPath id="clippath-3"><rect class="cls-1" x="23.07" y="7.1" width="89.61" height="111.3"/></clipPath><clipPath id="clippath-4"><rect class="cls-1" x="22.89" y="6.96" width="90" height="111.6"/></clipPath><clipPath id="clippath-5"><rect class="cls-1" x="21.63" y="5.97" width="91.71" height="113.67"/></clipPath><clipPath id="clippath-6"><path class="cls-1" d="M46.31,8.37c-5.13.65-9.61,1.53-13.22,2.58-3.68,1.07-6.47,2.32-8.13,3.68-.95.78-1.53,1.6-1.7,2.45-.06.93-.12,1.86-.19,2.82,3.3.89,10.27,3.62,15.63,15.46,1.45,3.19,2.76,6.56,3.94,9.96,0,.01,0,.02.01.04v.02c1.04,3,1.97,6.02,2.79,8.97,0,0,0,.02,0,.03h0c1.03,3.74,1.86,7.36,2.5,10.68,0,0,0,.01,0,.02h0c.59,3.1,1.01,5.93,1.24,8.34.64,6.78,1.25,16.49,1.54,21.28.03.18.05.35.07.5,0,.28,0,.54,0,.79.03.51.05.91.07,1.18.02.27.02.42.02.42,0,0,.27,4.56,1.71,9.04,1.71,5.33,3.84,9.29,6.73,10.5,1.97.82,7.61,1.27,8.53,1.27s6.56-.44,8.53-1.27c2.9-1.21,5.03-5.17,6.74-10.5,1.44-4.48,1.71-9.04,1.71-9.04,0,0,.04-.59.09-1.6,0-.22,0-.45,0-.68.02-.19.05-.39.07-.61.14-2.39.37-6.02.64-9.89.27-3.87.58-7.99.9-11.39.23-2.4.64-5.23,1.24-8.34v-.02c.64-3.32,1.48-6.94,2.51-10.67h0s0-.03,0-.03c.81-2.95,1.74-5.97,2.78-8.97v-.02s.02-.03.02-.04c1.18-3.4,2.49-6.77,3.94-9.96,5.36-11.85,12.32-14.57,15.63-15.46-.06-.95-.13-1.89-.19-2.82-.17-.85-.75-1.67-1.7-2.45-1.66-1.36-4.44-2.61-8.12-3.68-3.61-1.05-8.09-1.93-13.23-2.58-6.33-.81-13.65-1.26-21.56-1.26s-15.24.45-21.57,1.26"/></clipPath><clipPath id="clippath-7"><rect class="cls-1" x="22.89" y="6.96" width="90" height="111.6"/></clipPath><clipPath id="clippath-8"><rect class="cls-1" x="22.65" y="6.72" width="90.48" height="112.08"/></clipPath><radialGradient id="radial-gradient" cx="-272.75" cy="564.92" fx="-272.75" fy="564.92" r="1" gradientTransform="translate(-106311.17 36475.81) rotate(90) scale(133.42 -188.3)" gradientUnits="userSpaceOnUse"><stop offset="0" stop-color="#baa072"/><stop offset=".46" stop-color="#baa072"/><stop offset=".57" stop-color="#fff2c8"/><stop offset=".57" stop-color="#fff2c8"/><stop offset=".83" stop-color="#fff2c8"/><stop offset=".85" stop-color="#fff2c8"/><stop offset=".99" stop-color="#baa072"/><stop offset="1" stop-color="#baa072"/></radialGradient><clipPath id="clippath-9"><rect class="cls-1" x="61.92" y="87.6" width="11.91" height="30.73"/></clipPath><clipPath id="clippath-10"><rect class="cls-1" x="61.77" y="87.36" width="12.24" height="31.2"/></clipPath><clipPath id="clippath-11"><rect class="cls-1" x="60.94" y="87.58" width="13.1" height="32.06"/></clipPath><clipPath id="clippath-12"><path class="cls-1" d="M61.92,106.25c0,5.18,1.42,12.08,5.96,12.08s5.96-6.9,5.96-12.08c0-10.84-5.63-18.66-5.96-18.66s-5.96,7.82-5.96,18.66"/></clipPath><clipPath id="clippath-13"><rect class="cls-1" x="61.77" y="87.36" width="12.24" height="31.2"/></clipPath><clipPath id="clippath-14"><rect class="cls-1" x="61.53" y="87.58" width="12.51" height="31.22"/></clipPath><radialGradient id="radial-gradient-2" cx="-268.86" cy="569.32" fx="-268.86" fy="569.32" r="1" gradientTransform="translate(-24629.76 11691.08) rotate(90.14) scale(43.38 -43.33)" gradientUnits="userSpaceOnUse"><stop offset="0" stop-color="#fff"/><stop offset=".32" stop-color="#fff"/><stop offset=".47" stop-color="#fff"/><stop offset=".47" stop-color="#fff"/><stop offset=".57" stop-color="#fff"/><stop offset=".58" stop-color="#fff"/><stop offset="1" stop-color="#fff"/></radialGradient><clipPath id="clippath-15"><rect class="cls-1" y=".15" width="135.75" height="225.75"/></clipPath><clipPath id="clippath-16"><rect class="cls-1" x="60.94" y="87.58" width="13.1" height="32.06"/></clipPath><clipPath id="clippath-17"><path class="cls-1" d="M61.92,106.25c0,5.18,1.43,12.08,5.96,12.08s5.96-6.9,5.96-12.08c0-10.84-5.62-18.65-5.96-18.65s-5.96,7.82-5.96,18.65"/></clipPath><clipPath id="clippath-18"><rect class="cls-1" x="61.77" y="87.36" width="12.24" height="31.2"/></clipPath><clipPath id="clippath-19"><rect class="cls-1" x="61.53" y="87.58" width="12.51" height="31.22"/></clipPath><linearGradient id="linear-gradient-9" x1="-271.27" y1="566.92" x2="-270.27" y2="566.92" gradientTransform="translate(-42183.93 20328.33) rotate(90) scale(74.61 -74.53)" gradientUnits="userSpaceOnUse"><stop offset="0" stop-color="#b7a5e3"/><stop offset=".08" stop-color="#b7a5e3"/><stop offset=".34" stop-color="#5f4389"/><stop offset="1" stop-color="#5f4389"/></linearGradient><clipPath id="clippath-20"><rect class="cls-1" x="55.06" y="63.4" width="25.62" height="54.94"/></clipPath><clipPath id="clippath-21"><rect class="cls-1" x="55.05" y="63.36" width="25.68" height="55.2"/></clipPath><clipPath id="clippath-22"><rect class="cls-1" x="53.66" y="62.81" width="27.66" height="56.84"/></clipPath><clipPath id="clippath-23"><path class="cls-1" d="M60.94,112.48c-1.34-2.05-1.9-5.42-1.83-9.24.15-8.76,8.39-16.04,8.76-16.29h0s.07.06.15.12c0,0,0,0,0,0,1.21,1.04,8.46,7.95,8.6,16.16.07,3.77-.47,7.1-1.78,9.15-1.11,3.18-3.19,5.94-6.97,5.94s-5.82-2.71-6.94-5.86M60.02,83.57c-2.35,7.43-4.96,14.07-4.96,20.59,0,7.22,4.73,14.17,12.81,14.17s12.81-6.95,12.81-14.17c0-6.52-2.62-13.16-4.96-20.59-3.58-11.33-7.28-20.18-7.85-20.18s-4.28,8.85-7.85,20.18"/></clipPath><clipPath id="clippath-24"><rect class="cls-1" x="55.05" y="63.36" width="25.68" height="55.2"/></clipPath><clipPath id="clippath-25"><rect class="cls-1" x="54.81" y="63.12" width="26.16" height="55.68"/></clipPath><radialGradient id="radial-gradient-3" cx="-270.24" cy="567.95" fx="-270.24" fy="567.95" r="1" gradientTransform="translate(-32323.9 15433.15) rotate(90.11) scale(57.04 -56.98)" gradientUnits="userSpaceOnUse"><stop offset="0" stop-color="#fff"/><stop offset=".37" stop-color="#fff"/><stop offset=".48" stop-color="#fff"/><stop offset=".48" stop-color="#fff"/><stop offset=".58" stop-color="#fff2c8"/><stop offset=".59" stop-color="#fff2c8"/><stop offset="1" stop-color="#fff2c8"/></radialGradient><clipPath id="clippath-26"><rect class="cls-1" y=".15" width="135.75" height="225.75"/></clipPath><linearGradient id="linear-gradient-10" x1="-272.27" y1="561.22" x2="-271.27" y2="561.22" gradientTransform="translate(28586.32 58963.5) scale(104.93 -105.05)" gradientUnits="userSpaceOnUse"><stop offset="0" stop-color="#b7a5e3"/><stop offset=".05" stop-color="#b7a5e3"/><stop offset=".1" stop-color="#b7a5e3"/><stop offset=".16" stop-color="#351652"/><stop offset=".39" stop-color="#9a80d9"/><stop offset=".4" stop-color="#9a80d9"/><stop offset=".49" stop-color="#b7bade"/><stop offset=".5" stop-color="#b7bade"/><stop offset=".59" stop-color="#9a80d9"/><stop offset=".6" stop-color="#9a80d9"/><stop offset=".83" stop-color="#351652"/><stop offset=".84" stop-color="#351652"/><stop offset=".9" stop-color="#b7a5e3"/><stop offset=".95" stop-color="#b7a5e3"/><stop offset="1" stop-color="#b7a5e3"/></linearGradient><clipPath id="clippath-27"><rect class="cls-1" x="15.41" y=".15" width="104.93" height="16.93"/></clipPath><clipPath id="clippath-28"><rect class="cls-1" x="15.21" width="105.36" height="17.28"/></clipPath><clipPath id="clippath-29"><rect class="cls-1" x="14.36" y=".14" width="106.27" height="17.49"/></clipPath><clipPath id="clippath-30"><path class="cls-1" d="M15.41,12.08l.21,5c0-6.56,23.48-11.88,52.26-11.88s52.26,5.32,52.26,11.88l.21-5C120.34,5.49,96.77.15,67.88.15S15.41,5.49,15.41,12.08"/></clipPath><clipPath id="clippath-31"><rect class="cls-1" x="15.21" width="105.36" height="17.28"/></clipPath><clipPath id="clippath-32"><rect class="cls-1" x="14.97" y=".14" width="105.66" height="17.38"/></clipPath><linearGradient id="linear-gradient-11" x1="-272.27" y1="561.22" x2="-271.27" y2="561.22" gradientTransform="translate(28586.32 58963.5) scale(104.93 -105.05)" gradientUnits="userSpaceOnUse"><stop offset="0" stop-color="#baa072"/><stop offset=".18" stop-color="#baa072"/><stop offset=".43" stop-color="#dec285"/><stop offset=".57" stop-color="#dec285"/><stop offset=".82" stop-color="#baa072"/><stop offset="1" stop-color="#baa072"/></linearGradient><clipPath id="clippath-33"><rect class="cls-1" y=".15" width="135.75" height="225.75"/></clipPath><linearGradient id="linear-gradient-12" x1="-272.26" y1="561.21" x2="-271.26" y2="561.21" gradientTransform="translate(28472.05 58730.82) scale(104.52 -104.63)" gradientUnits="userSpaceOnUse"><stop offset="0" stop-color="#381a56"/><stop offset=".17" stop-color="#5f4389"/><stop offset=".48" stop-color="#8065b5"/><stop offset=".5" stop-color="#8065b5"/><stop offset=".81" stop-color="#5f4389"/><stop offset=".83" stop-color="#5f4389"/><stop offset="1" stop-color="#381a56"/></linearGradient><radialGradient id="radial-gradient-4" cx="-273.14" cy="562.82" fx="-273.14" fy="562.82" r="1" gradientTransform="translate(136109.16 22843.55) rotate(75.76) scale(203.94 224.39) skewX(.03)" gradientUnits="userSpaceOnUse"><stop offset="0" stop-color="#d9dadb"/><stop offset=".12" stop-color="#d9dadb"/><stop offset=".32" stop-color="#9a80d9"/><stop offset=".35" stop-color="#9a80d9"/><stop offset=".64" stop-color="#230037"/><stop offset=".9" stop-color="#230037"/><stop offset="1" stop-color="#230037"/></radialGradient><radialGradient id="radial-gradient-5" cx="-273.73" cy="564.95" fx="-273.73" fy="564.95" r="1" gradientTransform="translate(-136467.17 22843.55) rotate(104.24) scale(203.94 -224.39) skewX(.03)" xlink:href="#radial-gradient-4"/><clipPath id="clippath-34"><rect class="cls-1" y=".15" width="135.75" height="225.75"/></clipPath><clipPath id="clippath-35"><rect class="cls-1" x="14.36" y="16.17" width="39.31" height="93.27"/></clipPath><clipPath id="clippath-36"><path class="cls-1" d="M15.62,17.08c-.79,16.03,2.09,32.14,6.72,44.04,5.54,14.26,13.08,26.92,19.78,34.79,6.08,7.14,10.04,11.41,11.12,12.57h0c-.22-.6-.43-1.21-.63-1.85-1.44-4.48-1.71-9.04-1.71-9.04,0,0-.03-.59-.09-1.6,0-.13,0-.26,0-.39-3.83-3.83-20.14-20.79-24.85-36.51-4.71-15.72-3.49-30.1-2.7-42.01h-7.64Z"/></clipPath><clipPath id="clippath-37"><rect class="cls-1" x="14.73" y="17.04" width="38.64" height="91.44"/></clipPath><clipPath id="clippath-38"><rect class="cls-1" x="14.49" y="16.8" width="39.12" height="91.92"/></clipPath><linearGradient id="linear-gradient-13" x1="-278.61" y1="548.95" x2="-277.61" y2="548.95" gradientTransform="translate(14267.45 878.73) rotate(-59.8) scale(23.17 -23.16) skewX(.05)" gradientUnits="userSpaceOnUse"><stop offset="0" stop-color="#d9dadb"/><stop offset=".6" stop-color="#d9dadb"/><stop offset=".76" stop-color="#5f4389"/><stop offset=".78" stop-color="#5f4389"/><stop offset="1" stop-color="#5f4389"/></linearGradient><clipPath id="clippath-39"><rect class="cls-1" y=".15" width="135.75" height="225.75"/></clipPath><linearGradient id="linear-gradient-14" x1="-270.25" y1="559.31" x2="-269.25" y2="559.31" gradientTransform="translate(15036.13 32482.36) rotate(.89) scale(57.35 -57.41)" gradientUnits="userSpaceOnUse"><stop offset="0" stop-color="#1f0035"/><stop offset=".15" stop-color="#1f0035"/><stop offset=".16" stop-color="#1f0035"/><stop offset=".48" stop-color="#af9be0"/><stop offset=".52" stop-color="#af9be0"/><stop offset=".53" stop-color="#af9be0"/><stop offset=".85" stop-color="#1f0035"/><stop offset="1" stop-color="#1f0035"/></linearGradient><clipPath id="clippath-40"><rect class="cls-1" y=".15" width="135.75" height="225.75"/></clipPath><clipPath id="clippath-41"><rect class="cls-1" x="39.1" y="128.39" width="29.12" height="16.03"/></clipPath><clipPath id="clippath-42"><path class="cls-1" d="M67.88,128.88h-20.35c-.5,0-.92.89-.92.89l-6.42,12.79h-.72c-.3,0-.32.26-.32.26v1.39h28.73v-15.32h0Z"/></clipPath><clipPath id="clippath-43"><rect class="cls-1" x="38.97" y="128.64" width="29.04" height="15.6"/></clipPath><clipPath id="clippath-44"><rect class="cls-1" x="38.73" y="128.4" width="29.49" height="16.08"/></clipPath><linearGradient id="linear-gradient-15" x1="-263.9" y1="559.92" x2="-262.9" y2="559.92" gradientTransform="translate(-364.64 19340.51) rotate(26.46) scale(31.02 -31.04) skewX(-.05)" gradientUnits="userSpaceOnUse"><stop offset="0" stop-color="#fff2c8"/><stop offset=".1" stop-color="#fff2c8"/><stop offset=".28" stop-color="#dec285"/><stop offset=".29" stop-color="#dec285"/><stop offset=".59" stop-color="#fff2c8"/><stop offset=".59" stop-color="#fff2c8"/><stop offset=".97" stop-color="#fff2c8"/><stop offset="1" stop-color="#fff2c8"/></linearGradient><clipPath id="clippath-45"><rect class="cls-1" y=".15" width="135.75" height="225.75"/></clipPath><clipPath id="clippath-46"><rect class="cls-1" x="66.76" y="128.39" width="30.57" height="16.03"/></clipPath><clipPath id="clippath-47"><path class="cls-1" d="M67.88,128.88h0v15.32h28.73v-1.39s-.02-.26-.32-.26h-.72l-6.42-12.79s-.42-.89-.92-.89h-20.35Z"/></clipPath><clipPath id="clippath-48"><rect class="cls-1" x="67.77" y="128.64" width="29.04" height="15.6"/></clipPath><clipPath id="clippath-49"><rect class="cls-1" x="67.53" y="128.4" width="29.52" height="16.08"/></clipPath><linearGradient id="linear-gradient-16" x1="-278.16" y1="552.84" x2="-277.16" y2="552.84" gradientTransform="translate(6.64 19340.51) rotate(153.54) scale(31.02 31.04) skewX(-.05)" xlink:href="#linear-gradient-15"/><clipPath id="clippath-50"><rect class="cls-1" y=".15" width="135.75" height="225.75"/></clipPath><linearGradient id="linear-gradient-17" x1="-265.39" y1="554.24" x2="-264.39" y2="554.24" gradientTransform="translate(7146.55 14947.55) scale(26.72 -26.75)" gradientUnits="userSpaceOnUse"><stop offset="0" stop-color="#5f4389"/><stop offset=".15" stop-color="#5f4389"/><stop offset=".34" stop-color="#9a80d9"/><stop offset=".5" stop-color="#9a80d9"/><stop offset=".83" stop-color="#5f4389"/><stop offset=".85" stop-color="#5f4389"/><stop offset="1" stop-color="#5f4389"/></linearGradient><linearGradient id="linear-gradient-18" x1="-272.65" y1="565.56" x2="-271.65" y2="565.56" gradientTransform="translate(-71418.26 34473.26) rotate(90) scale(126.53 -126.4)" gradientUnits="userSpaceOnUse"><stop offset="0" stop-color="#5f4389"/><stop offset=".17" stop-color="#5f4389"/><stop offset="1" stop-color="#2d0e47"/><stop offset="1" stop-color="#2d0e47"/></linearGradient><linearGradient id="linear-gradient-19" x1="-271.62" y1="566.57" x2="-270.62" y2="566.57" gradientTransform="translate(-47184.97 22706.1) rotate(90) scale(83.49 -83.4)" gradientUnits="userSpaceOnUse"><stop offset="0" stop-color="#4c3071"/><stop offset=".44" stop-color="#4c3071"/><stop offset=".98" stop-color="#230037"/><stop offset=".99" stop-color="#230037"/><stop offset="1" stop-color="#230037"/><stop offset="1" stop-color="#230037"/></linearGradient><linearGradient id="linear-gradient-20" x1="-270.95" y1="567.24" x2="-269.95" y2="567.24" gradientTransform="translate(-38611.19 18483.07) rotate(90) scale(68.19 -68.11)" gradientUnits="userSpaceOnUse"><stop offset="0" stop-color="#dec285"/><stop offset=".34" stop-color="#dec285"/><stop offset=".62" stop-color="#fff2c8"/><stop offset=".62" stop-color="#fff2c8"/><stop offset=".8" stop-color="#dec285"/><stop offset=".8" stop-color="#dec285"/><stop offset=".94" stop-color="#baa072"/><stop offset=".94" stop-color="#baa072"/><stop offset=".96" stop-color="#baa072"/><stop offset="1" stop-color="#baa072"/></linearGradient><linearGradient id="linear-gradient-21" x1="-268.05" y1="556.94" x2="-267.05" y2="556.94" gradientTransform="translate(10085.1 21012.62) scale(37.56 -37.61)" gradientUnits="userSpaceOnUse"><stop offset="0" stop-color="#fff2c8"/><stop offset=".02" stop-color="#fff2c8"/><stop offset=".19" stop-color="#d9dadb"/><stop offset=".29" stop-color="#d9dadb"/><stop offset=".44" stop-color="#dec285"/><stop offset=".44" stop-color="#dec285"/><stop offset=".63" stop-color="#baa072"/><stop offset=".66" stop-color="#baa072"/><stop offset="1" stop-color="#fff2c8"/></linearGradient><linearGradient id="linear-gradient-22" x1="-281.2" y1="556.94" x2="-280.2" y2="556.94" gradientTransform="translate(-10443.1 21012.62) rotate(-180) scale(37.56 37.61)" xlink:href="#linear-gradient-21"/><linearGradient id="linear-gradient-23" x1="-270.23" y1="567.95" x2="-269.23" y2="567.95" gradientTransform="translate(-32281.89 15400.24) rotate(90) scale(56.96 -56.9)" gradientUnits="userSpaceOnUse"><stop offset="0" stop-color="#dec285"/><stop offset="0" stop-color="#dec285"/><stop offset=".15" stop-color="#fff2c8"/><stop offset=".44" stop-color="#fff2c8"/><stop offset=".62" stop-color="#9f7fdf"/><stop offset=".72" stop-color="#9f7fdf"/><stop offset=".82" stop-color="#9f7fdf"/><stop offset="1" stop-color="#9f7fdf"/></linearGradient><linearGradient id="linear-gradient-24" x1="-271.19" y1="567" x2="-270.19" y2="567" gradientTransform="translate(-41260.64 19777.57) rotate(90) scale(72.91 -72.83)" gradientUnits="userSpaceOnUse"><stop offset="0" stop-color="#9f7fdf"/><stop offset=".02" stop-color="#9f7fdf"/><stop offset=".12" stop-color="#dec285"/><stop offset=".19" stop-color="#fff2c8"/><stop offset=".22" stop-color="#fff2c8"/><stop offset=".53" stop-color="#9f7fdf"/><stop offset=".53" stop-color="#9f7fdf"/><stop offset=".69" stop-color="#230037"/><stop offset="1" stop-color="#230037"/></linearGradient><linearGradient id="linear-gradient-25" x1="-272.37" y1="565.84" x2="-271.37" y2="565.84" gradientTransform="translate(-62696.26 30233.04) rotate(90) scale(110.99 -110.87)" xlink:href="#linear-gradient-24"/><linearGradient id="linear-gradient-26" x1="-272.93" y1="565.29" x2="-271.93" y2="565.29" gradientTransform="translate(-83291.98 40283.52) rotate(90) scale(147.59 -147.43)" gradientUnits="userSpaceOnUse"><stop offset="0" stop-color="#9f7fdf"/><stop offset=".02" stop-color="#9f7fdf"/><stop offset=".12" stop-color="#dec285"/><stop offset=".18" stop-color="#fff2c8"/><stop offset=".22" stop-color="#fff2c8"/><stop offset=".43" stop-color="#9f7fdf"/><stop offset=".43" stop-color="#9f7fdf"/><stop offset=".53" stop-color="#230037"/><stop offset=".71" stop-color="#230037"/><stop offset="1" stop-color="#230037"/></linearGradient><linearGradient id="linear-gradient-27" y1="559.27" y2="559.27" gradientTransform="translate(31923.89 15400.24) rotate(90) scale(56.96 56.9)" xlink:href="#linear-gradient-23"/><linearGradient id="linear-gradient-28" y1="560.22" y2="560.22" gradientTransform="translate(40902.63 19777.57) rotate(90) scale(72.91 72.83)" xlink:href="#linear-gradient-24"/><linearGradient id="linear-gradient-29" x1="-272.37" y1="561.38" x2="-271.37" y2="561.38" gradientTransform="translate(62338.26 30233.04) rotate(90) scale(110.99 110.87)" xlink:href="#linear-gradient-24"/><linearGradient id="linear-gradient-30" x1="-272.93" y1="561.94" x2="-271.93" y2="561.94" gradientTransform="translate(82933.98 40283.52) rotate(90) scale(147.59 147.43)" gradientUnits="userSpaceOnUse"><stop offset="0" stop-color="#9f7fdf"/><stop offset=".02" stop-color="#9f7fdf"/><stop offset=".12" stop-color="#dec285"/><stop offset=".19" stop-color="#fff2c8"/><stop offset=".22" stop-color="#fff2c8"/><stop offset=".43" stop-color="#9f7fdf"/><stop offset=".43" stop-color="#9f7fdf"/><stop offset=".53" stop-color="#230037"/><stop offset=".71" stop-color="#230037"/><stop offset="1" stop-color="#230037"/></linearGradient><linearGradient id="linear-gradient-31" x1="-269.75" y1="568.42" x2="-268.75" y2="568.42" gradientTransform="translate(-29123.7 13902.95) rotate(90) scale(51.39 -51.34)" gradientUnits="userSpaceOnUse"><stop offset="0" stop-color="#fff2c8"/><stop offset=".1" stop-color="#fff2c8"/><stop offset=".51" stop-color="#baa072"/><stop offset=".57" stop-color="#baa072"/><stop offset=".68" stop-color="#5f4389"/><stop offset=".9" stop-color="#5f4389"/><stop offset="1" stop-color="#5f4389"/></linearGradient><linearGradient id="linear-gradient-32" x1="-271.22" y1="566.97" x2="-270.22" y2="566.97" gradientTransform="translate(-41629.6 20013.43) rotate(90) scale(73.61 -73.53)" gradientUnits="userSpaceOnUse"><stop offset="0" stop-color="#fff2c8"/><stop offset=".1" stop-color="#fff2c8"/><stop offset=".52" stop-color="#baa072"/><stop offset=".59" stop-color="#baa072"/><stop offset=".6" stop-color="#baa072"/><stop offset=".9" stop-color="#230037"/><stop offset="1" stop-color="#230037"/></linearGradient><linearGradient id="linear-gradient-33" y1="568.42" y2="568.42" gradientTransform="translate(-29101.92 13902.95) rotate(90) scale(51.39 -51.34)" xlink:href="#linear-gradient-31"/><linearGradient id="linear-gradient-34" x1="-271.22" y1="566.97" x2="-270.22" y2="566.97" gradientTransform="translate(-41611.54 20013.43) rotate(90) scale(73.61 -73.53)" xlink:href="#linear-gradient-32"/><linearGradient id="linear-gradient-35" x1="-285.26" y1="574.4" x2="-284.26" y2="574.4" gradientTransform="translate(-6538.18 -13230.21) rotate(-180) scale(23.22 -23.24)" gradientUnits="userSpaceOnUse"><stop offset="0" stop-color="#9a80d9"/><stop offset=".94" stop-color="#230037"/><stop offset="1" stop-color="#230037"/></linearGradient><clipPath id="clippath-51"><rect class="cls-1" y=".15" width="135.75" height="225.75"/></clipPath><clipPath id="clippath-52"><rect class="cls-1" x="81.32" y="16.17" width="39.31" height="93.27"/></clipPath><clipPath id="clippath-53"><path class="cls-1" d="M112.49,17.08c.79,11.91,2.01,26.29-2.7,42.01-4.71,15.71-21.02,32.67-24.85,36.51,0,.13,0,.26,0,.39-.06,1.01-.09,1.6-.09,1.6,0,0-.27,4.56-1.7,9.04-.21.63-.42,1.25-.63,1.85,1.09-1.16,5.04-5.43,11.13-12.57,6.7-7.86,14.24-20.53,19.78-34.79,4.62-11.9,7.51-28.01,6.72-44.04h-7.64Z"/></clipPath><clipPath id="clippath-54"><rect class="cls-1" x="82.41" y="17.04" width="38.4" height="91.44"/></clipPath><clipPath id="clippath-55"><rect class="cls-1" x="82.17" y="16.8" width="38.46" height="91.92"/></clipPath><linearGradient id="linear-gradient-36" x1="-289.34" y1="567.38" x2="-288.34" y2="567.38" gradientTransform="translate(-14625.45 878.73) rotate(-120.2) scale(23.17 23.16) skewX(.05)" xlink:href="#linear-gradient-13"/><clipPath id="clippath-56"><rect class="cls-1" y=".15" width="135.75" height="225.75"/></clipPath><linearGradient id="linear-gradient-37" x1="-270.95" y1="559.99" x2="-269.95" y2="559.99" gradientTransform="translate(38253.19 18483.07) rotate(90) scale(68.19 68.11)" gradientUnits="userSpaceOnUse"><stop offset="0" stop-color="#dec285"/><stop offset=".48" stop-color="#dec285"/><stop offset=".62" stop-color="#fff2c8"/><stop offset=".62" stop-color="#fff2c8"/><stop offset=".8" stop-color="#dec285"/><stop offset=".8" stop-color="#dec285"/><stop offset=".94" stop-color="#baa072"/><stop offset=".94" stop-color="#baa072"/><stop offset=".96" stop-color="#baa072"/><stop offset="1" stop-color="#baa072"/></linearGradient><clipPath id="clippath-57"><rect class="cls-1" x="39.15" y="142.55" width="57.45" height="1.64"/></clipPath><clipPath id="clippath-58"><rect class="cls-1" x="38.97" y="142.32" width="57.84" height="1.92"/></clipPath><linearGradient id="linear-gradient-38" x1="-278.92" y1="559.25" x2="-277.92" y2="559.25" gradientTransform="translate(-15928.04 32307.77) rotate(-180) scale(57.45 57.51)" gradientUnits="userSpaceOnUse"><stop offset="0" stop-color="#230037"/><stop offset=".27" stop-color="#9a80d9"/><stop offset=".5" stop-color="#9a80d9"/><stop offset=".84" stop-color="#9a80d9"/><stop offset="1" stop-color="#230037"/></linearGradient><clipPath id="clippath-59"><rect class="cls-1" x="54.51" y="116.77" width="13.36" height="7.65"/></clipPath><clipPath id="clippath-60"><rect class="cls-1" x="54.33" y="116.64" width="13.68" height="7.92"/></clipPath><linearGradient id="linear-gradient-39" x1="-262.11" y1="560.47" x2="-261.11" y2="560.47" gradientTransform="translate(-1784.89 16902.53) rotate(31.36) scale(27.27 -27.28) skewX(-.05)" gradientUnits="userSpaceOnUse"><stop offset="0" stop-color="#e8d19a"/><stop offset=".08" stop-color="#e8d19a"/><stop offset=".09" stop-color="#e8d19a"/><stop offset=".5" stop-color="#9f7fdf"/><stop offset=".83" stop-color="#230037"/><stop offset=".86" stop-color="#230037"/><stop offset="1" stop-color="#230037"/></linearGradient><clipPath id="clippath-61"><rect class="cls-1" y=".15" width="135.75" height="225.75"/></clipPath><linearGradient id="linear-gradient-40" x1="-270.13" y1="568.04" x2="-269.13" y2="568.04" gradientTransform="translate(-31586.44 15132.5) rotate(90) scale(55.79 -55.73)" xlink:href="#linear-gradient-19"/><linearGradient id="linear-gradient-41" x1="-269.93" y1="568.24" x2="-268.93" y2="568.24" gradientTransform="translate(-30265.9 14487.25) rotate(90) scale(53.43 -53.37)" gradientUnits="userSpaceOnUse"><stop offset="0" stop-color="#fff2c8"/><stop offset=".1" stop-color="#fff2c8"/><stop offset=".51" stop-color="#dec285"/><stop offset=".57" stop-color="#dec285"/><stop offset=".72" stop-color="#5f4389"/><stop offset="1" stop-color="#5f4389"/></linearGradient><linearGradient id="linear-gradient-42" y1="558.99" y2="558.99" gradientTransform="translate(29907.89 14487.25) rotate(90) scale(53.43 53.37)" xlink:href="#linear-gradient-41"/><linearGradient id="linear-gradient-43" x1="-267.48" y1="570.66" x2="-266.48" y2="570.66" gradientTransform="translate(-19917.44 9465.24) rotate(90) scale(35.06 -35.02)" gradientUnits="userSpaceOnUse"><stop offset="0" stop-color="#230037"/><stop offset=".02" stop-color="#230037"/><stop offset=".07" stop-color="#351752"/><stop offset=".08" stop-color="#351752"/><stop offset=".6" stop-color="#5f4389"/><stop offset=".63" stop-color="#5f4389"/><stop offset=".82" stop-color="#351752"/><stop offset=".83" stop-color="#351752"/><stop offset=".97" stop-color="#230037"/><stop offset=".98" stop-color="#230037"/><stop offset="1" stop-color="#230037"/><stop offset="1" stop-color="#230037"/></linearGradient><linearGradient id="linear-gradient-44" x1="-267.13" y1="571" x2="-266.13" y2="571" gradientTransform="translate(-19002.41 9008.55) rotate(90) scale(33.43 -33.39)" xlink:href="#linear-gradient-41"/><linearGradient id="linear-gradient-45" x1="-267.13" y1="556.22" x2="-266.13" y2="556.22" gradientTransform="translate(18644.38 9008.55) rotate(90) scale(33.43 33.39)" xlink:href="#linear-gradient-41"/><clipPath id="clippath-62"><rect class="cls-1" y=".15" width="135.75" height="225.75"/></clipPath><clipPath id="clippath-63"><rect class="cls-1" x="49.29" y="11.8" width="36.39" height="80.15"/></clipPath><clipPath id="clippath-64"><path class="cls-1" d="M53.14,52.16c-2.98,14.84-2.37,12.22-2.33,39.61.51-8.91,3.28-17.49,6.06-27.73,4.64-17.05,10.53-29.7,11-29.7s6.35,12.66,10.99,29.7c2.79,10.24,5.55,18.82,6.07,27.73.04-27.39.66-24.78-2.33-39.61-4.64-23.07-14.26-39.2-14.73-39.2s-10.09,16.13-14.73,39.2"/></clipPath><clipPath id="clippath-65"><rect class="cls-1" x="50.01" y="12.72" width="35.76" height="79.2"/></clipPath><clipPath id="clippath-66"><rect class="cls-1" x="49.77" y="12.48" width="35.92" height="79.68"/></clipPath><linearGradient id="linear-gradient-46" x1="-272.59" y1="565.62" x2="-271.59" y2="565.62" gradientTransform="translate(-69327.12 33465.91) rotate(90) scale(122.82 -122.69)" gradientUnits="userSpaceOnUse"><stop offset="0" stop-color="#a89cdb"/><stop offset=".53" stop-color="#a89cdb"/><stop offset=".83" stop-color="#230037"/><stop offset=".85" stop-color="#230037"/><stop offset="1" stop-color="#230037"/></linearGradient><clipPath id="clippath-67"><rect class="cls-1" x="51.48" y="38.39" width="32.79" height="80.02"/></clipPath><clipPath id="clippath-68"><rect class="cls-1" x="51.45" y="38.16" width="32.88" height="80.4"/></clipPath><clipPath id="clippath-69"><rect class="cls-1" x="50.75" y="38.03" width="34.94" height="81.61"/></clipPath><clipPath id="clippath-70"><path class="cls-1" d="M67,118.3s-.06,0-.09,0c-7.76-.47-12.4-6.68-12.4-15.65,0-6.68,2.2-13.01,4.67-20.6,3.72-11.39,8.31-19.85,8.69-19.85s4.97,8.46,8.69,19.85c2.48,7.59,4.67,13.92,4.67,20.6,0,8.97-4.64,15.19-12.4,15.65-.03,0-.06,0-.09,0-.29.02-.58.03-.87.03s-.59-.01-.87-.03M66.88,40.03h0s0,0,0,.01c-1.82,4.11-5.59,15.48-9.25,29.71-3.08,11.96-6.4,21.95-6.12,32.39h0c.25,1.38.61,2.94,1.11,4.49,1.71,5.33,3.84,9.29,6.73,10.5,1.97.82,7.61,1.27,8.53,1.27s6.56-.44,8.53-1.27c2.9-1.21,5.03-5.17,6.74-10.5.5-1.55.85-3.12,1.11-4.49h0c0-.37.01-.73.02-1.09v-.25c-.03-9.96-3.19-19.6-6.14-31.04-3.67-14.22-7.43-25.6-9.25-29.71,0,0,0,0,0-.01-.54-1.07-.9-1.65-1-1.65s-.46.58-1,1.65"/></clipPath><clipPath id="clippath-71"><rect class="cls-1" x="51.45" y="38.16" width="32.88" height="80.4"/></clipPath><clipPath id="clippath-72"><rect class="cls-1" x="51.21" y="38.03" width="33.36" height="80.77"/></clipPath><radialGradient id="radial-gradient-6" cx="-271.63" cy="567.05" fx="-271.63" fy="567.05" r="1" gradientTransform="translate(-39952.42 23425.52) rotate(89.41) scale(84.48 -71)" gradientUnits="userSpaceOnUse"><stop offset="0" stop-color="#fff"/><stop offset=".42" stop-color="#fff"/><stop offset=".46" stop-color="#fff"/><stop offset=".46" stop-color="#fff"/><stop offset=".5" stop-color="#fff"/><stop offset=".51" stop-color="#fff"/><stop offset="1" stop-color="#fff"/></radialGradient></defs><g class="cls-133"><polygon points="73.19 156.22 73.19 153.75 64.93 153.75 64.93 165.19 67.88 165.19 67.88 161.57 67.54 160.62 71.76 160.62 71.76 158.3 67.88 158.3 67.88 156.22 73.19 156.22"/></g><g class="cls-86"><path d="M76.8,164.63c-.97-.47-1.73-1.15-2.26-2.03-.53-.88-.79-1.92-.79-3.11s.26-2.23.79-3.11c.53-.88,1.28-1.57,2.25-2.04.97-.48,2.1-.72,3.39-.72.84,0,1.6.08,2.26.24.66.16,1.28.41,1.84.75v2.7c-.49-.37-1.06-.65-1.68-.82-.62-.17-1.34-.26-2.15-.26-1.16,0-2.06.29-2.69.86-.63.57-.94,1.37-.94,2.39,0,1.02.32,1.82.95,2.4.64.58,1.53.87,2.68.87.81,0,1.54-.09,2.18-.28.64-.18,1.24-.47,1.79-.87v2.69c-1.07.7-2.48,1.05-4.24,1.05-1.28,0-2.41-.23-3.39-.71"/><path d="M56.15,160.62l1.48-3.85,1.46,3.85h-2.94ZM63.93,165.19l-4.8-11.44h-3.99l.4,1.4-4.21,10.04h3.13l.57-1.4-.33-.94h5.15s.97,2.34.97,2.34h3.11Z"/><polygon points="30.48 184.63 26.11 184.63 26.11 178.22 21.06 178.22 21.06 184.63 16.68 184.63 16.68 168.89 21.06 168.89 21.06 174.73 26.11 174.73 26.11 168.89 30.48 168.89 30.48 184.63"/><path d="M4.21,183.88c-1.35-.65-2.38-1.59-3.12-2.81C.37,179.85,0,178.41,0,176.77c0-1.64.36-3.08,1.09-4.3.73-1.22,1.77-2.16,3.11-2.82,1.34-.66,2.9-.99,4.68-.99,1.17,0,2.21.11,3.13.33.92.22,1.77.57,2.54,1.04v3.73c-.69-.52-1.46-.89-2.32-1.13-.86-.24-1.85-.35-2.97-.35-1.6,0-2.84.4-3.71,1.19-.87.79-1.31,1.89-1.31,3.3,0,1.41.44,2.51,1.32,3.31.88.8,2.11,1.2,3.7,1.2,1.12,0,2.12-.13,3.01-.38.89-.25,1.71-.65,2.47-1.2v3.71c-1.48.96-3.43,1.45-5.85,1.45-1.77,0-3.33-.32-4.68-.97"/><path d="M38.34,178.34l2.03-5.29,2.01,5.29h-4.04ZM49.03,184.63l-6.61-15.74h-5.48l.55,1.93-5.8,13.81h4.3l.79-1.93-.45-1.29h7.09s1.33,3.23,1.33,3.23h4.28Z"/><path d="M76.03,175.89c-.44.31-1.06.46-1.87.46h-2.29v-4.1h2.29c.82,0,1.45.15,1.88.44.43.29.65.83.65,1.61s-.22,1.28-.66,1.59M80.44,177.3c.54-.81.77-1.83.77-3,0-1.74-.53-3.08-1.58-4.01-1.06-.93-2.52-1.4-4.38-1.4h-7.15v15.74h4.15v-3.61l-.45-1.3h3.55c.91,0,2.04-.16,2.89-.57,1.11-.53,1.87-1.38,2.19-1.85"/><polygon points="87.58 168.89 82.33 168.89 82.87 170.82 82.87 182.7 82.34 184.63 87.57 184.63 87.03 182.7 87.04 170.82 87.58 168.89"/><path d="M88.69,176.68c0-4.41,3.82-7.99,8.64-7.99s8.66,3.58,8.66,7.99-3.8,7.99-8.66,7.99-8.64-3.56-8.64-7.99M101.94,176.68c0-2.39-1.99-4.35-4.61-4.35s-4.56,1.96-4.56,4.35,1.9,4.33,4.56,4.33,4.61-1.96,4.61-4.33"/><polygon points="49.03 168.89 52.92 168.89 57.54 174.78 62.3 168.89 66.03 168.89 66.03 184.63 62.04 184.63 62.04 174.65 57.52 180.23 53.04 174.67 53.04 184.63 49.03 184.63 49.03 168.89"/><polygon points="121.56 184.52 121.55 168.89 117.39 168.89 117.4 178.19 111.36 168.89 107.25 168.89 107.25 184.52 111.41 184.52 111.41 175.2 117.47 184.52 121.56 184.52"/><path d="M124.11,181.3l-1.52,3.22h6.87c2.11,0,3.69-.4,4.75-1.18,1.13-.83,1.75-2.26,1.47-3.62-.67-3.22-4.6-3.79-7.21-5.34-.44-.26-.66-.59-.66-1.01s.18-.74.61-.96c.43-.22,1.04-.33,1.76-.33h3.77l1.16-3.19h-5.67c-1.17,0-2.21.13-3.12.5-.9.37-1.61.9-2.11,1.57-.5.67-.76,1.44-.76,2.3,0,1.05.33,1.93,1,2.65.71.76,1.78,1.22,2.72,1.62,1.23.53,2.65.95,3.74,1.74.25.18.48.48.49.78.01.35-.09.6-.33.78-.76.58-1.79.48-2.72.48h-4.26Z"/><polygon points="29.5 201.66 29.5 189.17 25.27 189.17 25.27 205.25 25.43 205.25 29.5 205.25 36.91 205.25 36.91 201.66 29.5 201.66"/><polygon points="38.34 205.24 49.94 205.24 49.94 201.81 42.48 201.81 42.48 198.8 47.93 198.8 47.93 195.6 42.48 195.6 42.48 192.59 49.94 192.59 49.94 189.18 38.34 189.18 38.34 205.24"/><path d="M56.72,198.82l2.07-5.41,2.06,5.4h-4.13ZM67.63,205.25l-6.75-16.07h-5.6l.56,1.97-5.92,14.09h4.39l.8-1.97-.46-1.32h7.24s1.35,3.29,1.35,3.29h4.37Z"/><path d="M89.9,205.49c2.01,0,4.28-.57,5.52-1.86,1.24-1.28,1.85-3,1.85-5.14v-9.32h-4.11v9.36c0,1.07-.29,1.88-.86,2.43-.57.55-1.37.83-2.39.83s-1.82-.28-2.39-.83c-.57-.55-.86-1.36-.86-2.43v-9.36h-4.11v9.32c0,2.14.61,3.86,1.85,5.14,1.24,1.29,3.51,1.86,5.52,1.86"/><polygon points="98.88 205.25 110.48 205.25 110.48 201.82 103.02 201.82 103.02 198.8 108.47 198.8 108.47 195.6 103.02 195.6 103.02 192.59 110.48 192.59 110.48 189.18 98.88 189.18 98.88 205.25"/><path d="M81.46,197.64h-4.09v3.33l.94.56s-.38.14-.98.24c-.48.06-.98.09-1.51.09-1.6,0-2.85-.41-3.74-1.22-.89-.81-1.33-1.93-1.33-3.36,0-1.43.44-2.55,1.32-3.35.88-.81,2.13-1.21,3.75-1.21,1.13,0,2.13.12,3.01.36.87.24,1.65.62,2.35,1.15v-3.79c-.79-.48-1.64-.84-2.57-1.06s-1.98-.34-3.16-.34c-1.79,0-3.37.34-4.73,1.01-1.36.67-2.41,1.63-3.14,2.87-.74,1.24-1.11,2.7-1.11,4.37,0,1.67.37,3.13,1.11,4.37.74,1.24,1.79,2.19,3.15,2.86s2.94.99,4.73.99c2.45,0,4.51-.51,6-1.49v-.04h0v-6.32Z"/><polygon class="cls-132" points="69.15 209.86 63.76 209.86 64.31 211.83 64.32 223.92 63.77 225.89 69.14 225.89 68.58 223.92 68.6 211.83 69.15 209.86"/><polygon class="cls-132" points="55.31 222.33 55.31 209.92 51.11 209.92 51.11 225.89 51.26 225.89 55.31 225.89 62.68 225.89 62.68 222.33 55.31 222.33"/><polygon class="cls-132" points="38.11 225.89 49.65 225.89 49.65 222.48 42.23 222.48 42.23 219.48 47.65 219.48 47.65 216.3 42.23 216.3 42.23 213.3 49.65 213.3 49.65 209.91 38.11 209.91 38.11 225.89"/><polygon class="cls-132" points="84.6 209.86 70.34 209.86 70.34 213.57 75.31 213.57 75.31 225.89 79.72 225.89 79.72 213.57 84.6 213.57 84.6 209.86"/><polygon class="cls-132" points="86.06 225.9 97.64 225.9 97.64 222.48 90.19 222.48 90.19 219.46 95.63 219.46 95.63 216.27 90.19 216.27 90.19 213.26 97.64 213.26 97.64 209.86 86.06 209.86 86.06 225.9"/><path class="cls-132" d="M102.59,212.51h-.46v-2.65h.41l.87,1.17.82-1.12h.46v2.6h-.51v-1.79l-.71.97h-.1l-.76-.97v1.79ZM100.85,210.37v2.14h-.51v-2.14h-.71v-.51h1.99v.51h-.76Z"/></g><g class="cls-89"><path class="cls-22" d="M66.81,118.29s.07,0,.11,0c.03,0,.06,0,.09,0,.24.02.49.03.74.03.02,0,.04,0,.07,0-.34,0-.68-.02-1.01-.04M68.01,118.33c.25,0,.5-.01.74-.03.03,0,.06,0,.09,0,.04,0,.07,0,.11,0-.33.03-.66.04-1,.04.02,0,.04,0,.07,0M54.51,102.64c0-6.68,2.2-13.01,4.67-20.6,3.72-11.39,8.31-19.85,8.69-19.85s4.97,8.46,8.69,19.85c2.47,7.59,4.67,13.92,4.67,20.6,0,8.9-4.56,15.08-12.22,15.64,7.39-.62,11.67-7.25,11.67-14.12,0-6.52-2.61-13.16-4.96-20.59-3.58-11.33-7.28-20.18-7.85-20.18s-4.28,8.85-7.85,20.18c-2.35,7.43-4.96,14.07-4.96,20.59,0,6.88,4.28,13.5,11.67,14.12-7.65-.56-12.22-6.74-12.22-15.64M66.88,40.03h0s0,0,0,.01c-1.82,4.11-5.59,15.48-9.25,29.71-3.08,11.96-6.4,21.94-6.12,32.38h0c.25,1.38.61,2.94,1.11,4.5,1.71,5.33,3.84,9.29,6.73,10.5,1.97.82,7.61,1.27,8.53,1.27s6.56-.44,8.53-1.27c2.9-1.21,5.03-5.18,6.74-10.5.5-1.55.85-3.12,1.11-4.5h0c.27-10.44-3.04-20.42-6.13-32.38-3.67-14.22-7.43-25.6-9.25-29.71,0,0,0,0,0-.01-.54-1.07-.9-1.65-1-1.65s-.46.58-1,1.65M53.14,52.16c-2.98,14.84-2.37,12.22-2.33,39.61.51-8.91,3.28-17.49,6.06-27.73,4.64-17.05,10.53-29.7,11-29.7s6.35,12.66,10.99,29.7c2.79,10.24,5.55,18.82,6.07,27.73.04-27.39.66-24.78-2.33-39.61-4.64-23.07-14.26-39.2-14.73-39.2s-10.09,16.13-14.73,39.2"/><path class="cls-20" d="M97.54,29.13c-1.75,4.58-1.97,8.21-4.43,16.19,1.18-3.4,2.5-6.77,3.94-9.96,5.35-11.84,12.32-14.57,15.63-15.46-.06-.95-.13-1.89-.19-2.81-.17-.85-.75-1.67-1.7-2.45-2.62.88-9.26,4.06-13.25,14.5"/><path class="cls-19" d="M93.77,23.54c-3.55,10.84-.85,19.34-3.46,30.83.81-2.96,1.74-5.98,2.78-8.98v-.03c2.48-8,2.69-11.63,4.45-16.22,3.99-10.44,10.63-13.62,13.25-14.5-1.66-1.36-4.44-2.61-8.12-3.68-1.23.75-6.15,4.2-8.9,12.59"/><path class="cls-18" d="M86.7,15.12c-1.54,7.89.15,14.42,1.73,25.96.72,5.31.45,13.97-.63,23.98.64-3.32,1.48-6.94,2.5-10.67h0c2.61-11.51-.09-20,3.46-30.85,2.74-8.39,7.67-11.83,8.9-12.59-3.61-1.05-8.1-1.93-13.23-2.58-.35.52-2.04,3.19-2.74,6.75"/><path class="cls-15" d="M23.26,17.08c-.06.92-.12,1.86-.19,2.81,3.3.89,10.27,3.62,15.63,15.46,1.44,3.19,2.76,6.56,3.94,9.96-2.46-7.98-2.67-11.61-4.43-16.19-3.99-10.44-10.63-13.62-13.25-14.5-.95.78-1.53,1.61-1.7,2.45"/><path class="cls-16" d="M24.96,14.63c2.62.88,9.26,4.06,13.25,14.5,1.76,4.59,1.97,8.22,4.44,16.22v.03c1.05,3,1.98,6.03,2.79,8.98-2.61-11.49.09-19.98-3.46-30.83-2.74-8.39-7.66-11.83-8.9-12.59-3.68,1.07-6.46,2.32-8.13,3.68"/><path class="cls-14" d="M33.09,10.95c1.23.75,6.15,4.2,8.9,12.59,3.55,10.85.85,19.34,3.46,30.84h0c1.02,3.74,1.86,7.37,2.5,10.68-1.09-10.01-1.36-18.67-.63-23.98,1.58-11.54,3.27-18.07,1.73-25.96-.7-3.56-2.39-6.23-2.74-6.75-5.13.65-9.61,1.53-13.23,2.58"/><path class="cls-13" d="M46.31,8.37c.34.52,2.04,3.19,2.74,6.75,1.54,7.89-.15,14.42-1.73,25.96-.73,5.31-.45,13.98.63,24,.59,3.1,1.01,5.93,1.24,8.34.64,6.79,1.25,16.49,1.54,21.28,0-.98.03-1.95.08-2.92-.01-8.41-.08-13.99-.08-18.12,0-9.31.34-11.21,2.41-21.49,4.64-23.07,14.26-39.2,14.73-39.2s10.09,16.13,14.73,39.2c2.98,14.84,2.37,12.22,2.33,39.61.06.97.08,1.94.08,2.92.14-2.4.37-6.02.64-9.89.27-3.87.58-7.99.9-11.39.23-2.4.64-5.24,1.24-8.34.68-6.24,1.04-11.97,1.04-16.68,0-2.84-.13-5.32-.41-7.32-1.58-11.54-3.27-18.07-1.73-25.96.7-3.56,2.39-6.23,2.74-6.75-6.33-.81-13.65-1.26-21.57-1.26s-15.23.45-21.56,1.26"/></g><g class="cls-87"><g class="cls-4"><g class="cls-88"><g class="cls-94"><g class="cls-91"><g class="cls-7"><g class="cls-90"><g class="cls-93"><path class="cls-21" d="M46.31,8.37c-5.13.65-9.61,1.53-13.22,2.58-3.68,1.07-6.47,2.32-8.13,3.68-.95.78-1.53,1.6-1.7,2.45-.06.93-.12,1.86-.19,2.82,3.3.89,10.27,3.62,15.63,15.46,1.45,3.19,2.76,6.56,3.94,9.96,0,.01,0,.02.01.04v.02c1.04,3,1.97,6.02,2.79,8.97,0,0,0,.02,0,.03h0c1.03,3.74,1.86,7.36,2.5,10.68,0,0,0,.01,0,.02h0c.59,3.1,1.01,5.93,1.24,8.34.64,6.78,1.25,16.49,1.54,21.28.03.18.05.35.07.5,0,.28,0,.54,0,.79.03.51.05.91.07,1.18.02.27.02.42.02.42,0,0,.27,4.56,1.71,9.04,1.71,5.33,3.84,9.29,6.73,10.5,1.97.82,7.61,1.27,8.53,1.27s6.56-.44,8.53-1.27c2.9-1.21,5.03-5.17,6.74-10.5,1.44-4.48,1.71-9.04,1.71-9.04,0,0,.04-.59.09-1.6,0-.22,0-.45,0-.68.02-.19.05-.39.07-.61.14-2.39.37-6.02.64-9.89.27-3.87.58-7.99.9-11.39.23-2.4.64-5.23,1.24-8.34v-.02c.64-3.32,1.48-6.94,2.51-10.67h0s0-.03,0-.03c.81-2.95,1.74-5.97,2.78-8.97v-.02s.02-.03.02-.04c1.18-3.4,2.49-6.77,3.94-9.96,5.36-11.85,12.32-14.57,15.63-15.46-.06-.95-.13-1.89-.19-2.82-.17-.85-.75-1.67-1.7-2.45-1.66-1.36-4.44-2.61-8.12-3.68-3.61-1.05-8.09-1.93-13.23-2.58-6.33-.81-13.65-1.26-21.56-1.26s-15.24.45-21.57,1.26"/></g></g></g></g></g></g></g></g><g class="cls-92"><g class="cls-5"><g class="cls-28"><g class="cls-25"><g class="cls-32"><g class="cls-7"><g class="cls-30"><g class="cls-31"><path class="cls-12" d="M61.92,106.25c0,5.18,1.42,12.08,5.96,12.08s5.96-6.9,5.96-12.08c0-10.84-5.63-18.66-5.96-18.66s-5.96,7.82-5.96,18.66"/></g></g></g></g></g></g></g></g><g class="cls-29"><g class="cls-26"><g class="cls-23"><g class="cls-7"><g class="cls-27"><g class="cls-24"><path class="cls-17" d="M61.92,106.25c0,5.18,1.43,12.08,5.96,12.08s5.96-6.9,5.96-12.08c0-10.84-5.62-18.65-5.96-18.65s-5.96,7.82-5.96,18.65"/></g></g></g></g></g></g><g class="cls-69"><g class="cls-5"><g class="cls-70"><g class="cls-71"><g class="cls-72"><g class="cls-7"><g class="cls-73"><g class="cls-74"><path class="cls-11" d="M60.94,112.48c-1.34-2.05-1.9-5.42-1.83-9.24.15-8.76,8.39-16.04,8.76-16.29h0s.07.06.15.12c0,0,0,0,0,0,1.21,1.04,8.46,7.95,8.6,16.16.07,3.77-.47,7.1-1.78,9.15-1.11,3.18-3.19,5.94-6.97,5.94s-5.82-2.71-6.94-5.86M60.02,83.57c-2.35,7.43-4.96,14.07-4.96,20.59,0,7.22,4.73,14.17,12.81,14.17s12.81-6.95,12.81-14.17c0-6.52-2.62-13.16-4.96-20.59-3.58-11.33-7.28-20.18-7.85-20.18s-4.28,8.85-7.85,20.18"/></g></g></g></g></g></g></g></g><g class="cls-67"><path class="cls-102" d="M15.41,12.08l.21,5c0-6.56,23.48-11.88,52.26-11.88s52.26,5.32,52.26,11.88l.21-5C120.34,5.49,96.77.15,67.88.15S15.41,5.49,15.41,12.08"/></g><g class="cls-65"><g class="cls-4"><g class="cls-68"><g class="cls-66"><g class="cls-61"><g class="cls-7"><g class="cls-55"><g class="cls-56"><path class="cls-103" d="M15.41,12.08l.21,5c0-6.56,23.48-11.88,52.26-11.88s52.26,5.32,52.26,11.88l.21-5C120.34,5.49,96.77.15,67.88.15S15.41,5.49,15.41,12.08"/></g></g></g></g></g></g></g></g><g class="cls-57"><path class="cls-104" d="M15.62,17.08h7.64c1.1-5.55,19.99-9.98,44.62-9.98s43.52,4.42,44.62,9.98h7.64c0-6.56-23.48-11.88-52.26-11.88S15.62,10.52,15.62,17.08"/><path class="cls-10" d="M15.62,17.08c-.79,16.03,2.09,32.14,6.72,44.04,5.54,14.26,13.08,26.92,19.78,34.79,6.08,7.14,10.04,11.41,11.12,12.57-.22-.6-.43-1.21-.63-1.85-1.44-4.48-1.71-9.04-1.71-9.04,0,0-.03-.59-.09-1.6,0-.13,0-.26,0-.39-3.83-3.83-20.14-20.79-24.85-36.51-4.71-15.72-3.49-30.1-2.7-42.01h-7.64Z"/><path class="cls-9" d="M112.49,17.08c.79,11.91,2.01,26.29-2.7,42.01-4.71,15.71-21.02,32.67-24.85,36.51,0,.13,0,.26,0,.39-.06,1.01-.09,1.6-.09,1.6,0,0-.27,4.56-1.7,9.04-.21.63-.42,1.25-.63,1.85,1.09-1.16,5.04-5.43,11.13-12.57,6.7-7.86,14.24-20.53,19.78-34.79,4.62-11.9,7.51-28.01,6.72-44.04h-7.64Z"/></g><g class="cls-58"><g class="cls-59"><g class="cls-62"><g class="cls-7"><g class="cls-63"><g class="cls-64"><path class="cls-105" d="M15.62,17.08c-.79,16.03,2.09,32.14,6.72,44.04,5.54,14.26,13.08,26.92,19.78,34.79,6.08,7.14,10.04,11.41,11.12,12.57h0c-.22-.6-.43-1.21-.63-1.85-1.44-4.48-1.71-9.04-1.71-9.04,0,0-.03-.59-.09-1.6,0-.13,0-.26,0-.39-3.83-3.83-20.14-20.79-24.85-36.51-4.71-15.72-3.49-30.1-2.7-42.01h-7.64Z"/></g></g></g></g></g></g><g class="cls-60"><path class="cls-107" d="M67.88,128.88h-20.35c-.5,0-.92.89-.92.89l-6.42,12.79h-.72c-.3,0-.32.26-.32.26v1.39h57.45v-1.39s-.02-.26-.32-.26h-.72l-6.42-12.79s-.42-.89-.92-.89h-20.35Z"/></g><g class="cls-82"><g class="cls-76"><g class="cls-77"><g class="cls-7"><g class="cls-78"><g class="cls-79"><path class="cls-118" d="M67.88,128.88h-20.35c-.5,0-.92.89-.92.89l-6.42,12.79h-.72c-.3,0-.32.26-.32.26v1.39h28.73v-15.32h0Z"/></g></g></g></g></g></g><g class="cls-80"><g class="cls-83"><g class="cls-84"><g class="cls-7"><g class="cls-85"><g class="cls-81"><path class="cls-119" d="M67.88,128.88h0v15.32h28.73v-1.39s-.02-.26-.32-.26h-.72l-6.42-12.79s-.42-.89-.92-.89h-20.35Z"/></g></g></g></g></g></g><g class="cls-42"><path class="cls-120" d="M76.41,117.13c-1.98.82-7.61,1.27-8.53,1.27s-6.56-.44-8.53-1.27c-.24-.1-.48-.22-.72-.36l-4.11,7.65h26.72l-4.11-7.65c-.23.14-.47.26-.72.36"/><path class="cls-121" d="M51.88,50.8c-1.09,5.16-1.53,13.21-1.06,16.95h0c.2-4.91.78-7.91,2.32-15.59,4.64-23.07,14.26-39.2,14.73-39.2s10.09,16.13,14.73,39.2c1.54,7.68,2.12,10.68,2.32,15.59h0c.47-3.74.03-11.79-1.06-16.95-5.04-23.81-15.49-40.45-16-40.45s-10.96,16.65-16,40.45"/><path class="cls-106" d="M56.88,64.04c-3.09,11.36-6.15,20.66-6.15,30.65.03.49.05.92.08,1.3h0c0-9.51,3.13-18.52,6.22-29.33,4.64-16.23,10.38-28.27,10.85-28.27s6.21,12.04,10.85,28.27c3.09,10.81,6.22,19.82,6.22,29.33h0c.02-.37.05-.81.08-1.3,0-9.99-3.06-19.29-6.15-30.65-4.64-17.05-10.53-29.7-10.99-29.7s-6.35,12.66-11,29.7"/><path class="cls-109" d="M21.74,17.08c-.78,11.7-1.41,25.44,3.05,40.34,1.51,5.05,3.66,9.2,6.03,12.66-2.05-3.61-3.77-7.33-4.86-10.98-4.71-15.72-3.49-30.1-2.7-42.01h-1.52Z"/><path class="cls-108" d="M15.67,28.92c.68,11.9,3.18,23.24,6.66,32.2,5.54,14.26,13.08,26.92,19.78,34.79,6.09,7.14,10.04,11.41,11.13,12.57-.22-.6-.43-1.21-.63-1.85-.14-.45-.28-.9-.4-1.35-2.05-2.24-5-5.53-8.71-9.82-7.04-8.15-15-21.3-20.88-36.12-3.39-8.54-5.92-19.16-6.94-30.41Z"/><path class="cls-110" d="M113.14,59.33c-5.88,14.82-13.84,27.97-20.88,36.12-3.71,4.29-6.66,7.58-8.71,9.82-.12.45-.25.9-.4,1.35-.21.63-.42,1.25-.63,1.85,1.09-1.16,5.04-5.43,11.13-12.57,6.7-7.86,14.24-20.53,19.78-34.79,3.48-8.96,5.98-20.3,6.66-32.2-1.02,11.26-3.55,21.88-6.94,30.41"/><path class="cls-111" d="M23.07,19.9c3.31.89,10.27,3.62,15.63,15.46,1.45,3.19,2.76,6.56,3.94,9.96-.15-.49-.29-.95-.43-1.41,0-.01,0-.02-.01-.04-.96-2.98-2.02-5.92-3.19-8.73-5-12.15-12.32-15.29-15.87-16.42-.02.39-.05.78-.08,1.18"/><path class="cls-127" d="M24.96,14.63c2.62.88,9.26,4.06,13.25,14.5,1.76,4.59,1.97,8.22,4.44,16.22v.03c1.05,3,1.97,6.03,2.79,8.98-.52-2.31-.83-4.49-1.02-6.6-.3-.93-.61-1.87-.93-2.8v-.03c-2.6-8.38-2.82-12.18-4.65-16.98-3.46-9.05-9.39-12.57-12.88-14.04-.36.23-.69.47-.99.71"/><path class="cls-113" d="M33.09,10.95c1.23.75,6.15,4.2,8.9,12.59,3.55,10.85.85,19.34,3.46,30.84h0c1.02,3.74,1.86,7.37,2.5,10.68-.27-2.5-.49-4.92-.66-7.22-.33-1.35-.69-2.73-1.07-4.12h0c-2.09-11.66.09-21.25-3.68-32.77-1.73-5.29-4.27-8.72-6.32-10.81-1.1.26-2.15.53-3.13.82"/><path class="cls-128" d="M46.31,8.37c.35.52,2.04,3.19,2.74,6.75,1.54,7.89-.15,14.42-1.73,25.96-.73,5.31-.45,13.98.63,24h0c.59,3.1,1.01,5.93,1.24,8.34.64,6.79,1.25,16.49,1.54,21.28-.22-4.79-.26-14.74-.81-21.53-.19-2.41-.57-5.24-1.13-8.35h0c-.95-10.02-1.11-18.7-.31-24.01,1.73-11.52,3.52-18.03,2.08-25.93-.62-3.41-2.16-6.01-2.59-6.7-.56.06-1.11.13-1.65.2"/><path class="cls-126" d="M96.73,35.14c-1.16,2.82-2.22,5.75-3.19,8.73,0,.01,0,.02-.01.04-.13.46-.28.92-.43,1.41,1.18-3.4,2.5-6.77,3.94-9.96,5.36-11.84,12.32-14.57,15.63-15.46-.03-.39-.05-.79-.08-1.18-3.55,1.14-10.87,4.27-15.87,16.42"/><path class="cls-112" d="M96.92,27.95c-1.84,4.8-2.06,8.61-4.64,16.98v.03c-.33.93-.64,1.87-.95,2.8-.19,2.11-.5,4.3-1.02,6.6.81-2.96,1.74-5.98,2.78-8.98v-.03c2.48-8,2.69-11.63,4.45-16.22,3.99-10.44,10.63-13.62,13.25-14.5-.3-.24-.62-.48-.99-.71-3.5,1.47-9.42,4.99-12.89,14.04"/><path class="cls-129" d="M93.21,20.94c-3.77,11.52-1.59,21.12-3.68,32.76h0c-.38,1.4-.74,2.77-1.07,4.13-.17,2.3-.39,4.72-.66,7.22.64-3.32,1.48-6.94,2.5-10.67h0c2.61-11.51-.09-20,3.46-30.85,2.74-8.39,7.66-11.83,8.9-12.59-.98-.29-2.03-.56-3.13-.82-2.06,2.09-4.6,5.53-6.32,10.81"/><path class="cls-117" d="M85.2,14.87c-1.44,7.91.34,14.41,2.08,25.93.8,5.31.64,13.98-.32,24.01h0c-.55,3.11-.93,5.95-1.13,8.35-.55,6.79-.59,16.74-.81,21.53.29-4.79.9-14.49,1.54-21.28.23-2.4.64-5.24,1.24-8.34h0c1.08-10.01,1.36-18.68.63-24-1.58-11.54-3.27-18.07-1.73-25.96.7-3.56,2.39-6.23,2.74-6.75-.54-.07-1.09-.14-1.65-.2-.43.68-1.97,3.29-2.59,6.7"/><path class="cls-115" d="M53.14,52.16c-1.9,9.42-2.34,11.81-2.4,19.32.31-4.32,1.13-9.25,2.69-17.01,3.11-15.46,7.13-26.82,9.79-33.09-3.26,6.95-7.46,17.76-10.08,30.78"/><path class="cls-114" d="M57.03,66.66c-3.09,10.81-6.22,19.82-6.22,29.33.06,1.01.09,1.6.09,1.6,0,0,.11,1.94.6,4.54-.27-10.44,3.04-20.42,6.13-32.38,3.67-14.23,7.43-25.61,9.26-29.72-1.93,3.82-6.22,13.95-9.85,26.63"/><path class="cls-116" d="M72.53,21.38c2.66,6.27,6.68,17.63,9.79,33.09,1.56,7.76,2.38,12.69,2.69,17.01-.06-7.51-.5-9.89-2.4-19.32-2.62-13.02-6.83-23.83-10.08-30.78Z"/><path class="cls-123" d="M68.87,40.03c1.82,4.1,5.59,15.49,9.26,29.72,3.08,11.96,6.4,21.94,6.12,32.38.48-2.6.6-4.54.6-4.54,0,0,.03-.59.09-1.6,0-9.51-3.13-18.52-6.22-29.33-3.63-12.67-7.92-22.8-9.85-26.63Z"/><path class="cls-122" d="M76.41,117.13c-1.98.82-7.61,1.27-8.53,1.27v6.01h13.36l-4.11-7.65c-.23.14-.47.26-.72.36"/></g><g class="cls-52"><g class="cls-44"><g class="cls-48"><g class="cls-7"><g class="cls-46"><g class="cls-43"><path class="cls-124" d="M112.49,17.08c.79,11.91,2.01,26.29-2.7,42.01-4.71,15.71-21.02,32.67-24.85,36.51,0,.13,0,.26,0,.39-.06,1.01-.09,1.6-.09,1.6,0,0-.27,4.56-1.7,9.04-.21.63-.42,1.25-.63,1.85,1.09-1.16,5.04-5.43,11.13-12.57,6.7-7.86,14.24-20.53,19.78-34.79,4.62-11.9,7.51-28.01,6.72-44.04h-7.64Z"/></g></g></g></g></g></g><g class="cls-47"><path class="cls-130" d="M112.49,17.08c.79,11.91,2.01,26.29-2.7,42.01-1.1,3.65-2.82,7.37-4.86,10.98,2.37-3.45,4.52-7.61,6.03-12.66,4.47-14.9,3.83-28.63,3.05-40.34h-1.52Z"/></g><g class="cls-45"><g class="cls-3"><g class="cls-53"><path class="cls-125" d="M39.47,142.56c-.3,0-.32.26-.32.26v1.39h57.45v-1.39s-.02-.26-.32-.26h-56.81Z"/></g></g></g><g class="cls-54"><g class="cls-6"><g class="cls-36"><path class="cls-131" d="M54.51,124.42h13.36v-6.01c-.93,0-6.56-.44-8.53-1.27-.24-.1-.48-.22-.72-.36l-4.11,7.65Z"/></g></g></g><g class="cls-33"><path class="cls-96" d="M59.19,82.04c-2.47,7.59-4.67,13.92-4.67,20.6,0,9,4.67,15.23,12.49,15.66-7.55-.48-11.94-7.18-11.94-14.14,0-6.52,2.62-13.16,4.96-20.59,3.57-11.33,7.28-20.17,7.85-20.17s4.27,8.85,7.85,20.17c2.35,7.43,4.96,14.07,4.96,20.59,0,6.96-4.39,13.66-11.94,14.14,7.82-.43,12.49-6.66,12.49-15.66,0-6.68-2.2-13.01-4.67-20.6-3.72-11.39-8.31-19.85-8.69-19.85s-4.97,8.46-8.69,19.85"/><path class="cls-97" d="M59.19,82.04c-2.48,7.59-4.67,13.92-4.67,20.6,0,9,4.67,15.23,12.49,15.66-7.55-.48-11.94-7.18-11.94-14.14,0-6.52,2.61-13.16,4.96-20.59,2.81-8.89,5.69-16.25,7.08-19.01,0,0-5.85,11.15-7.91,17.48"/><path class="cls-98" d="M68.65,64.57c1.39,2.76,4.27,10.12,7.08,19.01,2.34,7.43,4.96,14.07,4.96,20.59,0,6.96-4.39,13.66-11.94,14.14,7.82-.43,12.49-6.66,12.49-15.66,0-6.68-2.2-13.01-4.67-20.6-2.07-6.33-7.92-17.48-7.92-17.48h0Z"/><path class="cls-95" d="M59.73,104.88c0,4.13,1.21,13.45,8.15,13.45-4.53,0-5.96-6.9-5.96-12.08,0-10.84,5.62-18.65,5.96-18.65s5.95,7.82,5.95,18.65c0,5.18-1.42,12.08-5.95,12.08,6.94,0,8.15-9.33,8.15-13.45,0-9.4-8.04-17.94-8.15-17.94s-8.15,8.53-8.15,17.94"/><path class="cls-100" d="M59.11,103.24c-.07,3.82.49,7.19,1.83,9.24-.96-2.69-1.21-5.7-1.21-7.6,0-9.25,7.77-17.65,8.13-17.93-.37.25-8.6,7.53-8.76,16.29"/><path class="cls-99" d="M67.86,86.95c.36.28,8.14,8.68,8.14,17.93,0,1.9-.26,4.91-1.21,7.6,1.34-2.05,1.9-5.42,1.83-9.24-.16-8.76-8.39-16.04-8.76-16.29h0Z"/></g><g class="cls-38"><g class="cls-41"><g class="cls-39"><g class="cls-7"><g class="cls-37"><g class="cls-40"><path class="cls-101" d="M53.14,52.16c-2.98,14.84-2.37,12.22-2.33,39.61.51-8.91,3.28-17.49,6.06-27.73,4.64-17.05,10.53-29.7,11-29.7s6.35,12.66,10.99,29.7c2.79,10.24,5.55,18.82,6.07,27.73.04-27.39.66-24.78-2.33-39.61-4.64-23.07-14.26-39.2-14.73-39.2s-10.09,16.13-14.73,39.2"/></g></g></g></g></g></g><g class="cls-34"><g class="cls-2"><g class="cls-35"><g class="cls-75"><g class="cls-49"><g class="cls-7"><g class="cls-50"><g class="cls-51"><path class="cls-8" d="M67,118.3s-.06,0-.09,0c-7.76-.47-12.4-6.68-12.4-15.65,0-6.68,2.2-13.01,4.67-20.6,3.72-11.39,8.31-19.85,8.69-19.85s4.97,8.46,8.69,19.85c2.48,7.59,4.67,13.92,4.67,20.6,0,8.97-4.64,15.19-12.4,15.65-.03,0-.06,0-.09,0-.29.02-.58.03-.87.03s-.59-.01-.87-.03M66.88,40.03h0s0,0,0,.01c-1.82,4.11-5.59,15.48-9.25,29.71-3.08,11.96-6.4,21.95-6.12,32.39h0c.25,1.38.61,2.94,1.11,4.49,1.71,5.33,3.84,9.29,6.73,10.5,1.97.82,7.61,1.27,8.53,1.27s6.56-.44,8.53-1.27c2.9-1.21,5.03-5.17,6.74-10.5.5-1.55.85-3.12,1.11-4.49h0c0-.37.01-.73.02-1.09v-.25c-.03-9.96-3.19-19.6-6.14-31.04-3.67-14.22-7.43-25.6-9.25-29.71,0,0,0,0,0-.01-.54-1.07-.9-1.65-1-1.65s-.46.58-1,1.65"/></g></g></g></g></g></g></g></g></svg>