<?xml version="1.0" encoding="UTF-8" standalone="no"?>
<svg
   xmlns:dc="http://purl.org/dc/elements/1.1/"
   xmlns:cc="http://creativecommons.org/ns#"
   xmlns:rdf="http://www.w3.org/1999/02/22-rdf-syntax-ns#"
   xmlns:svg="http://www.w3.org/2000/svg"
   xmlns="http://www.w3.org/2000/svg"
   xmlns:sodipodi="http://sodipodi.sourceforge.net/DTD/sodipodi-0.dtd"
   xmlns:inkscape="http://www.inkscape.org/namespaces/inkscape"
   version="1.1"
   id="svg10"
   width="500"
   height="269.03107"
   viewBox="0 0 499.99999 269.03108"
   sodipodi:docname="Logo de la LPF.svg"
   inkscape:version="1.0 (4035a4fb49, 2020-05-01)">
  <metadata
     id="metadata16">
    <rdf:RDF>
      <cc:Work
         rdf:about="">
        <dc:format>image/svg+xml</dc:format>
        <dc:type
           rdf:resource="http://purl.org/dc/dcmitype/StillImage" />
        <dc:title></dc:title>
      </cc:Work>
    </rdf:RDF>
  </metadata>
  <defs
     id="defs14" />
  <sodipodi:namedview
     inkscape:document-rotation="0"
     pagecolor="#ffffff"
     bordercolor="#666666"
     borderopacity="1"
     objecttolerance="10"
     gridtolerance="10"
     guidetolerance="10"
     inkscape:pageopacity="0"
     inkscape:pageshadow="2"
     inkscape:window-width="1366"
     inkscape:window-height="705"
     id="namedview12"
     showgrid="false"
     inkscape:zoom="0.95984974"
     inkscape:cx="218.56741"
     inkscape:cy="201.56127"
     inkscape:window-x="-8"
     inkscape:window-y="-8"
     inkscape:window-maximized="1"
     inkscape:current-layer="g948" />
  <g
     transform="translate(0.00132794,-1.5988653e-5)"
     inkscape:groupmode="layer"
     id="layer2"
     inkscape:label="Image 1" />
  <g
     inkscape:groupmode="layer"
     inkscape:label="Image"
     id="g18"
     transform="translate(-658.96249,-359.74623)">
    <g
       transform="matrix(3.427201,0,0,3.427201,-4463.6955,-1969.6114)"
       id="g48">
      <g
         transform="translate(0.68433935)"
         id="g86">
        <g
           transform="matrix(4.6294943,0,0,4.6294943,-6756.0588,-3456.4693)"
           style="fill:#004a79;fill-opacity:1"
           id="g925">
          <g
             id="g948">
            <g
               transform="matrix(0.22439791,0,0,0.22439791,1382.1768,692.94749)"
               id="g958">
              <rect
                 transform="matrix(0.06302703,0,0,0.06302703,1782.0696,893.43169)"
                 style="fill:#ffffff;stroke:none;stroke-width:1.76784"
                 id="rect32"
                 width="813.4035"
                 height="108.02332"
                 x="22.003"
                 y="53.564999" />
              <g
                 id="g22"
                 transform="matrix(0.06302703,0,0,0.06302703,1742.4257,885.11213)">
                <path
                   sodipodi:nodetypes="sscccccccss"
                   style="fill:#daa813"
                   d="M 1057.5061,1330.9019 C 1056.4027,1330.848 959.65,1275.5861 842.5,1208.0977 L 629.5,1085.3915 629.24861,730.69576 628.99721,376 H 1055.5 1482.0028 l -0.2514,356.20847 -0.2514,356.20843 -210.9939,121.2916 c -116.0467,66.7103 -211.8967,121.2474 -213,121.1934 z"
                   id="path26" />
                <path
                   sodipodi:nodetypes="sscccccccss"
                   style="fill:#f5d77f"
                   d="M 1056.5111,1253.9926 C 1055.405,1253.9885 973.275,1207.501 874,1150.687 L 693.5,1047.3887 693.24837,743.69435 692.99675,440 H 1056.5 1420.0033 l -0.2517,303.70404 -0.2516,303.70406 -180.4889,103.2959 c -99.2689,56.8128 -181.3939,103.2927 -182.5,103.2886 z"
                   id="path30" />
                <path
                   sodipodi:nodetypes="cccccccccsssscccsssssscssscssssssssccssssssssccsssscssssssscsscssssssssscssssssssscccsssscscssscsssscsssccsssssssscccccccccccccccccccc"
                   style="fill:#0ab9d8"
                   d="M 1056.5,343 H 629 V 237.5 132 H 1056.5 1484 V 237.5 343 Z M 936.20295,290.96456 c 0.93662,0.0195 2.88287,-0.50217 4.32499,-1.15925 1.44213,-0.65707 3.2633,-2.43473 4.04706,-3.95034 1.0541,-2.0384 1.425,-6.80296 1.425,-18.30531 L 946,252 h 17 17 v 17 c 0,15.59367 0.16335,17.16335 1.97456,18.97456 1.08601,1.08601 3.11975,2.26199 4.51942,2.61328 1.39966,0.3513 3.90733,0.0744 5.57259,-0.61541 1.66526,-0.68978 3.7029,-2.55973 4.52808,-4.15546 1.26803,-2.4521 1.45427,-8.35268 1.20284,-38.10914 L 997.5,212.5 l -2.82391,-6.11039 c -1.57029,-3.39779 -4.89978,-8.14809 -7.5,-10.70049 -2.57185,-2.52456 -7.37609,-5.83721 -10.67609,-7.36145 -4.98308,-2.30163 -7.3559,-2.77011 -14,-2.76267 -6.64946,0.007 -9.05246,0.4891 -14.23431,2.85165 -3.83144,1.74686 -7.93902,4.66487 -10.65722,7.57084 -2.43259,2.60064 -5.30921,6.47985 -6.39248,8.62047 -1.08327,2.14062 -2.47502,6.27669 -3.09278,9.19126 -0.70284,3.31594 -1.10995,17.35065 -1.08777,37.5 0.0273,24.80496 0.33967,32.74969 1.36007,34.59071 0.72855,1.31446 2.4001,2.98601 3.71456,3.71456 1.31446,0.72855 3.15626,1.34059 4.09288,1.36007 z M 963,233 h -17 v -10.03212 c 0,-6.16363 0.52098,-11.27899 1.35104,-13.26562 0.74308,-1.77843 2.98346,-4.66678 4.97862,-6.41856 1.99517,-1.75178 5.2122,-3.48233 7.14896,-3.84567 1.93676,-0.36334 5.106,-0.36334 7.04276,0 1.93676,0.36334 5.15379,2.09389 7.14896,3.84567 1.99516,1.75178 4.23554,4.64013 4.97862,6.41856 0.83006,1.98663 1.35104,7.10199 1.35104,13.26562 V 233 Z m 72.2997,57.96456 c 0.9898,0.0195 3.0397,-0.60581 4.5553,-1.38956 1.5156,-0.78376 3.2932,-2.60493 3.9503,-4.04706 0.7616,-1.6715 1.1947,-8.22407 1.1947,-18.07499 V 252 h 17.4529 c 11.4016,0 18.3621,-0.41423 20.075,-1.19469 1.4422,-0.65707 3.2633,-2.43473 4.0471,-3.95034 0.7837,-1.51561 1.425,-3.43182 1.425,-4.25826 0,-0.82643 -0.5376,-2.68253 -1.1947,-4.12465 -0.6571,-1.44213 -2.4347,-3.2633 -3.9503,-4.04706 -2.0779,-1.07452 -7.072,-1.425 -20.3053,-1.425 H 1045 v -8.75 c 0,-6.9137 0.4134,-9.42187 1.9558,-11.95145 1.0736,-1.7608 3.2996,-3.8983 4.9466,-4.75 C 1054.2672,206.32761 1058.5182,206 1072,206 c 12.8436,0 17.7852,-0.35466 19.855,-1.425 1.5156,-0.78376 3.2932,-2.60493 3.9503,-4.04706 0.6571,-1.44212 1.1947,-3.4797 1.1947,-4.52794 0,-1.04824 -0.5376,-3.08582 -1.1947,-4.52794 -0.6571,-1.44213 -2.4347,-3.2633 -3.9503,-4.04706 -2.0602,-1.06534 -6.943,-1.425 -19.3462,-1.425 -14.1409,0 -17.5535,0.31109 -23.1121,2.10687 -3.5868,1.15878 -8.4021,3.54131 -10.7007,5.29452 -2.2986,1.7532 -5.4413,5.06661 -6.9836,7.36313 -1.5561,2.3169 -3.4438,7.19341 -4.241,10.95549 -1.0829,5.11051 -1.4322,14.78268 -1.4186,39.27999 0.014,25.07975 0.3205,33.04566 1.3427,34.88993 0.7286,1.31446 2.4001,2.98601 3.7146,3.71456 1.3144,0.72855 3.1997,1.34059 4.1896,1.36007 z m 87.9032,0 c 0.9367,0.0195 2.8829,-0.50217 4.325,-1.15925 1.4422,-0.65707 3.2633,-2.43473 4.0471,-3.95034 1.0541,-2.0384 1.425,-6.80296 1.425,-18.30531 V 252 h 17 17 v 17 c 0,15.59367 0.1633,17.16335 1.9746,18.97456 1.086,1.08601 3.1197,2.26199 4.5194,2.61328 1.3996,0.3513 3.9073,0.0744 5.5726,-0.61541 1.6652,-0.68978 3.7029,-2.55973 4.528,-4.15546 1.2681,-2.4521 1.4543,-8.35268 1.2029,-38.10914 L 1184.5,212.5 l -2.8239,-6.11039 c -1.5703,-3.39779 -4.8998,-8.14809 -7.5,-10.70049 -2.5719,-2.52456 -7.3761,-5.83721 -10.6761,-7.36145 -4.9831,-2.30163 -7.3559,-2.76982 -14,-2.76238 -6.6495,0.007 -9.0525,0.48881 -14.2343,2.85136 -3.8315,1.74686 -7.939,4.66487 -10.6572,7.57084 -2.4326,2.60064 -5.3092,6.47985 -6.3925,8.62047 -1.0833,2.14062 -2.475,6.27669 -3.0928,9.19126 -0.7028,3.31594 -1.1099,17.35065 -1.0878,37.5 0.027,24.80496 0.3397,32.74969 1.3601,34.59071 0.7286,1.31446 2.4001,2.98601 3.7146,3.71456 1.3144,0.72855 3.1562,1.34059 4.0928,1.36007 z M 1150,233 h -17 v -10.03212 c 0,-6.16363 0.521,-11.27899 1.351,-13.26562 0.7431,-1.77843 2.9835,-4.66678 4.9787,-6.41856 1.9951,-1.75178 5.2122,-3.48233 7.1489,-3.84567 1.9368,-0.36334 5.106,-0.36334 7.0428,0 1.9367,0.36334 5.1538,2.09389 7.1489,3.84567 1.9952,1.75178 4.2356,4.64013 4.9787,6.41856 0.83,1.98663 1.351,7.10199 1.351,13.26562 V 233 Z M 775.5,268 H 900 V 239 210 H 775.5 651.00021 L 651,239 v 29 z m 562,0 H 1462 v -29 l 2e-4,-29 H 1337.5 1213 v 29 29 z"
                   id="path28" />
                <path
                   style="fill:#004a79"
                   d="m 1028,1161.723 c -0.825,0.1377 -14.325,-7.109 -30,-16.1038 l -28.5,-16.3541 -0.5,-117.4591 -0.5,-117.45915 -104,58.82632 c -67.69113,38.28865 -104.96009,58.82643 -106.75,58.82653 L 755,1012 V 759.5 507 h 30.49751 30.49752 L 816.24751,703.90691 816.5,900.81383 892.75,857.33507 969,813.8563 V 690.92815 568 H 953.57013 938.14026 L 917.1847,541.66162 c -11.52556,-14.48611 -22.13776,-28.21111 -23.58267,-30.5 L 890.97491,507 h 126.50789 126.5079 l 0.2547,103.36434 0.2546,103.36435 23.75,-13.57819 23.75,-13.57818 V 596.78616 507 h 83 83 v 30.5 30.5 h -52.5 -52.5 v 41.5 c 0,22.825 0.2282,41.5 0.5071,41.5 0.2789,0 15.6914,-8.72353 34.25,-19.38563 18.5586,-10.66209 35.4356,-20.0913 37.5045,-20.9538 l 3.7615,-1.56818 -0.2615,39.16877 -0.2616,39.16876 -37.7363,21.53504 -37.7363,21.53504 -0.2637,168.35301 -0.2637,168.35299 -28.7718,15.9956 c -16.4391,9.1393 -29.4054,15.7525 -30.25,15.4284 -1.2961,-0.4973 -1.4782,-21.0361 -1.4782,-166.68195 0,-115.28868 -0.3204,-166.00791 -1.0472,-165.76565 -0.5759,0.19198 -37.0114,20.81698 -80.9676,45.83333 l -79.9205,45.48427 -0.2823,151.9863 c -0.2493,134.1743 -0.4582,152.0157 -1.7824,152.2367 z m 7.25,-385.68468 c 2.8875,-1.65117 15.0274,-8.52278 26.9776,-15.27023 l 21.7275,-12.26809 0.023,-90.75 0.022,-90.75 h -27 -27 v 106.02023 106.02023 l 5.25,-3.00214 z"
                   id="path24" />
              </g>
              <path
                 sodipodi:nodetypes="ccccc"
                 id="path52"
                 d="M 1785.8054,958.10918 V 751.24062 h 4.3767 v 206.86852 z"
                 style="fill:#daa813;fill-opacity:1"
                 transform="matrix(0.21600631,0,0,0.21600631,1459.3514,746.61919)" />
              <path
                 id="path931"
                 d="m 1875.4976,953.66299 c -0.6011,-0.10104 -1.2042,-0.46989 -1.5605,-0.95444 -0.5626,-0.76491 -0.5682,-0.82729 -0.5682,-6.31933 v -4.99503 h 0.6059 0.6058 l 0.026,5.0823 c 0.025,4.78734 0.037,5.09923 0.2032,5.37407 0.2593,0.42836 0.6742,0.63872 1.2444,0.63095 0.5998,-0.008 1.0512,-0.2536 1.2722,-0.6917 0.1499,-0.29711 0.1638,-0.75263 0.1639,-5.36017 l 2e-4,-5.03545 h 0.6089 0.6089 l -5e-4,5.0823 c -3e-4,3.17005 -0.036,5.21192 -0.096,5.4268 -0.3536,1.27317 -1.6503,2.00581 -3.1145,1.7597 z m 22.0166,-0.003 c -0.8383,-0.20232 -1.5874,-0.81631 -1.9352,-1.58638 -0.1822,-0.40333 -0.1906,-0.60225 -0.1925,-4.59719 0,-4.82722 -0.01,-4.77572 0.7881,-5.57352 1.2735,-1.27353 3.3142,-0.98539 4.2459,0.5995 l 0.257,0.43713 v 4.44993 c 0,4.4267 0,4.4519 -0.2087,4.82468 -0.2608,0.46841 -0.4524,0.68853 -0.8687,0.99786 -0.546,0.40576 -1.4533,0.60064 -2.0859,0.44799 z m 1.2798,-1.38488 c 0.1492,-0.0851 0.36,-0.27364 0.4685,-0.41905 0.1922,-0.25782 0.1978,-0.3649 0.2238,-4.30942 0.03,-4.6032 0.035,-4.56606 -0.6842,-4.98782 -0.6741,-0.39507 -1.4472,-0.2439 -1.9347,0.37831 l -0.2183,0.27866 -0.026,4.0746 c -0.028,4.2867 -0.019,4.38841 0.3997,4.78195 0.4866,0.45713 1.1852,0.53709 1.7715,0.20277 z m -47.3487,1.13348 c 0,-0.0386 -0.012,-2.75778 -0.024,-6.04253 l -0.022,-5.97228 1.6863,0.002 c 1.4294,0.002 1.7433,0.0281 2.061,0.17286 0.5787,0.26381 0.9498,0.62733 1.2365,1.21121 l 0.2624,0.53436 v 4.16889 4.16889 l -0.2545,0.51525 c -0.3119,0.63124 -0.9184,1.07681 -1.6553,1.21615 -0.5807,0.10979 -3.2887,0.13048 -3.2914,0.0252 z m 3.4503,-1.43106 c 0.5813,-0.35439 0.5908,-0.43347 0.5604,-4.67215 l -0.027,-3.81861 -0.2624,-0.34398 c -0.3995,-0.52349 -0.6752,-0.62484 -1.7002,-0.62484 h -0.8947 v 4.82467 4.82467 l 1.0071,-3.7e-4 c 0.8448,-2.8e-4 1.0571,-0.0308 1.3172,-0.18942 z m 4.0149,1.43887 c -0.034,-0.0344 -0.062,-2.7535 -0.062,-6.04255 v -5.98009 h 1.9249 1.925 l -0.028,0.58552 -0.028,0.58551 -1.2881,0.0261 -1.2882,0.0261 v 2.10522 2.10523 h 1.3161 1.316 l -0.028,0.58552 -0.028,0.58551 -1.2881,0.0261 -1.2882,0.0261 v 2.10522 2.10523 h 1.3116 1.3116 v 0.60894 0.60893 h -1.8581 c -1.0219,0 -1.8861,-0.0281 -1.9205,-0.0625 z m 9.0248,-5.98203 v -6.04449 l 1.8971,0.0254 1.8971,0.0254 v 0.5621 0.56209 l -1.2882,0.0261 -1.2881,0.0261 v 2.10522 2.10523 h 1.316 1.3161 l -0.028,0.58552 -0.028,0.58551 -1.2882,0.0261 -1.2881,0.0261 v 2.71416 2.71416 h -0.6089 -0.609 z m 14.8019,0.61087 v -5.43361 h -1.0305 -1.0305 v -0.60893 -0.60894 h 2.6231 2.6231 v 0.60894 0.60893 h -1.0305 -1.0305 v 5.43361 5.43361 h -0.5621 -0.5621 z m 5.0589,-0.60893 v -6.05773 l 1.6629,0.0314 c 1.8699,0.0353 2.086,0.0976 2.7585,0.79553 0.6089,0.63186 0.7268,1.02745 0.7291,2.44671 0,1.34423 -0.054,1.57968 -0.5445,2.29303 l -0.2759,0.40102 0.2292,0.27921 c 0.126,0.15357 0.3427,0.49 0.4814,0.74763 0.2397,0.4449 0.2524,0.53423 0.2524,1.77997 0,1.5049 -0.117,1.89342 -0.7602,2.52559 -0.6745,0.66289 -0.9888,0.74877 -2.87,0.7841 l -1.6629,0.0312 z m 3.2601,4.69251 c 0.1392,-0.0727 0.3795,-0.26517 0.5341,-0.42773 l 0.281,-0.29556 v -1.23515 c 0,-1.15355 -0.015,-1.25596 -0.2247,-1.55022 -0.3212,-0.45032 -0.6982,-0.57492 -1.7396,-0.57492 h -0.893 v 2.10787 2.10787 h 0.8946 c 0.5881,0 0.9813,-0.0453 1.1476,-0.13216 z m 0.091,-5.56647 c 0.5754,-0.41044 0.7741,-1.19401 0.6341,-2.50115 -0.06,-0.55964 -0.1092,-0.67712 -0.4267,-1.0177 l -0.359,-0.38502 -0.9905,-0.0319 -0.9906,-0.032 v 2.12517 2.12517 l 0.9134,-0.0322 c 0.7753,-0.0273 0.9596,-0.0652 1.2193,-0.25038 z m 11.826,0.87396 v -6.04255 h 0.609 0.6089 v 5.43361 5.43361 h 1.4989 1.499 v 0.60894 0.60893 h -2.1079 -2.1079 z m -27.2026,-6.87292 -0.2466,-0.25737 0.475,-0.67423 0.475,-0.67422 0.4619,0.43731 c 0.254,0.24052 0.4619,0.45012 0.4619,0.46577 0,0.0157 -0.3107,0.23809 -0.6903,0.49429 l -0.6903,0.46582 z m -8.7587,-3.30004 c -0.3899,-0.19481 -0.6864,-0.42977 -0.9071,-0.71884 -0.5996,-0.78524 -0.6155,-0.93401 -0.5851,-5.46944 0.026,-3.92806 0.034,-4.07597 0.2285,-4.49719 0.2264,-0.48973 0.8044,-1.10977 1.2692,-1.36157 0.2314,-0.12534 0.5222,-0.16796 1.1526,-0.16893 0.7138,-10e-4 0.9128,0.0342 1.2968,0.23043 0.5336,0.27253 0.9487,0.71706 1.2228,1.30928 0.1914,0.41372 0.1972,0.55248 0.1972,4.68891 0,3.84578 -0.016,4.29773 -0.1626,4.62215 -0.4653,1.02888 -1.4135,1.65461 -2.5073,1.65461 -0.512,0 -0.7313,-0.0527 -1.205,-0.28941 z m 1.964,-1.14001 c 0.1751,-0.11635 0.4132,-0.39931 0.5291,-0.62879 0.2082,-0.41206 0.2108,-0.4639 0.2103,-4.16814 -3e-4,-2.17256 -0.039,-3.89061 -0.093,-4.08293 -0.051,-0.18263 -0.2378,-0.47315 -0.4158,-0.6456 -0.6236,-0.60444 -1.7767,-0.46678 -2.2327,0.26655 -0.2082,0.33467 -0.2092,0.35696 -0.2092,4.42812 0,4.00496 0,4.09737 0.196,4.35626 0.5136,0.6932 1.3793,0.89705 2.0151,0.47453 z m 17.2636,1.25747 c -0.7462,-0.2579 -1.4327,-0.93009 -1.7669,-1.73 l -0.138,-0.33028 0.4361,-0.1486 c 0.6015,-0.20495 0.6537,-0.19363 0.8311,0.18037 0.3106,0.65436 1.1055,1.0653 1.8116,0.93643 0.7182,-0.13108 1.064,-0.60023 1.0762,-1.45992 0.01,-0.72399 -0.4824,-1.70124 -1.348,-2.67413 -1.7171,-1.92986 -2.1294,-2.55072 -2.4031,-3.6189 -0.2953,-1.15276 0.07,-2.43829 0.8402,-2.95792 0.5898,-0.39784 0.9891,-0.52951 1.609,-0.53053 1.0599,-0.002 2.0818,0.73125 2.2345,1.6028 0.051,0.28961 0.046,0.29352 -0.4699,0.39714 -0.2866,0.0576 -0.553,0.0849 -0.5921,0.0608 -0.039,-0.0241 -0.096,-0.16932 -0.1267,-0.32263 -0.1131,-0.56533 -0.8884,-0.80254 -1.5977,-0.4888 -0.764,0.33796 -0.9947,1.18615 -0.5898,2.16889 0.2862,0.69483 0.8163,1.44987 1.8269,2.60239 0.9964,1.13621 1.351,1.66519 1.6206,2.41721 0.2633,0.73485 0.2883,1.88263 0.054,2.49107 -0.2181,0.56692 -0.8252,1.12238 -1.5046,1.37656 -0.6451,0.24135 -1.1632,0.24941 -1.8036,0.0281 z m 10.7741,0.0204 c -0.5086,-0.1804 -1.1003,-0.69685 -1.4186,-1.23819 l -0.2569,-0.43713 v -4.44994 c 0,-4.38532 0,-4.45538 0.2028,-4.82467 0.5007,-0.925 1.373,-1.44729 2.4203,-1.44911 0.817,-10e-4 1.4382,0.26473 1.9545,0.83742 0.7458,0.82731 0.726,0.66881 0.6956,5.55157 l -0.027,4.33473 -0.257,0.43713 c -0.6826,1.16117 -2.0695,1.67942 -3.3137,1.23819 z m 1.5977,-1.21047 c 0.167,-0.0793 0.4052,-0.2795 0.5294,-0.44499 l 0.2257,-0.30091 0.025,-4.07521 c 0.024,-3.83074 0.015,-4.09487 -0.1501,-4.40309 -0.5245,-0.98076 -1.9633,-1.02093 -2.5473,-0.0711 -0.1815,0.29508 -0.187,0.44359 -0.1631,4.42737 l 0.025,4.12205 0.2245,0.31475 c 0.3881,0.54411 1.1932,0.73372 1.8309,0.43115 z m -47.1637,-4.88727 v -6.02323 h 1.5511 c 1.9668,0 2.2847,0.0763 2.9054,0.69692 0.6682,0.66822 0.7898,1.07809 0.7898,2.66278 0,1.42465 -0.092,1.73157 -0.7097,2.38051 -0.586,0.61514 -0.9693,0.75414 -2.2414,0.81269 l -1.1241,0.0517 -0.047,2.71757 -0.047,2.71756 -0.5387,0.003 -0.5387,0.003 v -6.02322 z m 3.2585,-0.78977 c 0.6923,-0.33515 0.7816,-0.57562 0.7501,-2.01989 l -0.027,-1.23638 -0.3246,-0.33462 c -0.4012,-0.41364 -0.8265,-0.53412 -1.761,-0.49887 l -0.7248,0.0273 -0.025,2.01187 c -0.014,1.10652 0,2.0656 0.021,2.13128 0.032,0.0841 0.2871,0.11942 0.8623,0.11942 0.6424,0 0.9047,-0.0427 1.23,-0.20015 z m 3.6741,0.81296 v -6.04642 h 1.6051 c 0.9594,0 1.7531,0.0443 1.9729,0.11018 0.5113,0.15318 1.1849,0.77639 1.4466,1.33834 0.1977,0.42456 0.2199,0.60472 0.2207,1.79298 5e-4,0.7581 -0.045,1.4567 -0.1076,1.63946 -0.1734,0.50873 -0.5896,1.04911 -1.0029,1.30212 -0.2103,0.12881 -0.3836,0.27697 -0.385,0.32924 0,0.0523 0.3494,1.30793 0.7795,2.79038 0.4301,1.48244 0.7501,2.71504 0.7111,2.73912 -0.039,0.0241 -0.3479,0.0361 -0.6865,0.0268 l -0.6157,-0.017 -0.1349,-0.47511 c -0.074,-0.26132 -0.37,-1.40258 -0.6572,-2.53614 -0.2872,-1.13357 -0.5488,-2.15762 -0.5814,-2.27568 -0.056,-0.20128 -0.1001,-0.21295 -0.7164,-0.18737 l -0.6572,0.0273 -0.01,2.7168 -0.01,2.71681 -0.5855,0.0273 -0.5855,0.0273 z m 3.2824,-0.82359 c 0.3039,-0.15322 0.4773,-0.32593 0.6349,-0.63236 0.1938,-0.3768 0.2136,-0.52605 0.1864,-1.40525 -0.026,-0.83502 -0.063,-1.0371 -0.2493,-1.33725 -0.3378,-0.54564 -0.6577,-0.66975 -1.7362,-0.67361 l -0.9264,-0.003 0.011,2.06103 c 0.01,1.13356 0.012,2.09264 0.013,2.13128 9e-4,0.0386 0.3721,0.0703 0.8249,0.0703 0.6675,0 0.9024,-0.0399 1.2413,-0.21079 z m 11.5195,0.79952 v -6.02235 h 1.8736 1.8737 v 0.55946 0.55945 l -1.2882,0.0261 -1.2881,0.0261 v 2.10787 2.10786 l 1.2881,0.0261 1.2882,0.0261 v 0.5493 c 0,0.51536 -0.015,0.55313 -0.247,0.61128 -0.1359,0.0341 -0.6734,0.0572 -1.1945,0.0514 -0.5211,-0.006 -1.0001,-0.008 -1.0645,-0.005 -0.091,0.004 -0.1171,0.6108 -0.1171,2.70412 v 2.69849 l -0.5621,-0.002 -0.5621,-0.002 v -6.02235 z m 5.3889,5.89421 c -0.028,-0.074 -0.05,-2.78543 -0.048,-6.02551 v -5.89105 h 1.9179 1.9178 v 0.55946 0.55945 l -1.2882,0.0261 -1.2881,0.0261 -0.025,2.13129 -0.025,2.13128 h 1.3134 1.3133 v 0.55039 c 0,0.54149 0,0.55133 -0.2928,0.60894 -0.161,0.0322 -0.7512,0.0586 -1.3115,0.0586 h -1.0188 v 2.10787 2.10786 h 1.316 1.316 l -0.028,0.58552 -0.028,0.58552 -1.8467,0.006 c -1.5223,0.005 -1.8558,-0.0172 -1.8984,-0.12808 z m 13.3205,0.11017 c -0.037,-0.0366 -0.067,-2.75351 -0.067,-6.03759 v -5.97105 l 0.455,-0.0325 c 0.2502,-0.0179 0.5245,-0.0188 0.6096,-0.002 0.1421,0.028 0.1527,0.51767 0.1305,6.04255 l -0.024,6.01213 -0.519,0.0275 c -0.2854,0.0151 -0.5489,-0.002 -0.5855,-0.039 z m 11.1052,-0.002 c -0.092,-0.0388 -0.1172,-1.33578 -0.1172,-6.0373 v -5.9879 l 0.6792,8.5e-4 0.6793,8.4e-4 1.6862,4.58945 1.6863,4.58945 0.024,-4.59031 0.024,-4.59031 h 0.6088 0.6087 l -0.024,6.01913 -0.024,6.01913 -0.5706,0.0275 c -0.4044,0.0195 -0.6027,-0.011 -0.6805,-0.10477 -0.06,-0.0727 -0.724,-1.7925 -1.4747,-3.82166 -0.7507,-2.02913 -1.4984,-4.0477 -1.6616,-4.48566 l -0.2967,-0.79631 -0.047,4.59047 -0.047,4.59046 -0.4684,0.0182 c -0.2577,0.01 -0.5211,-0.004 -0.5855,-0.0312 z m 7.6434,0.0135 c -0.026,-0.0255 0.091,-0.77381 0.26,-1.66287 1.0283,-5.42514 1.9164,-10.07692 1.9584,-10.25872 0.045,-0.19342 0.1017,-0.21079 0.6925,-0.21079 0.5899,0 0.6482,0.0177 0.6956,0.21079 0.028,0.11593 0.199,0.99069 0.379,1.94392 0.18,0.95322 0.669,3.52482 1.0867,5.71466 0.4176,2.18983 0.768,4.04383 0.7787,4.11999 0.015,0.10815 -0.1002,0.13942 -0.5268,0.14279 -0.3004,0.002 -0.5663,-0.0281 -0.5907,-0.0677 -0.024,-0.0396 -0.1477,-0.60976 -0.2738,-1.26699 -0.1261,-0.65722 -0.2512,-1.29063 -0.2781,-1.40757 -0.048,-0.20819 -0.074,-0.21241 -1.2606,-0.20289 -1.0446,0.008 -1.2182,0.0312 -1.2581,0.16577 -0.025,0.0858 -0.1522,0.71633 -0.2816,1.4011 -0.1295,0.68477 -0.2605,1.28551 -0.291,1.33498 -0.056,0.0911 -1.0048,0.12899 -1.0902,0.0435 z m 3.8381,-4.33328 c -0.2925,-1.91674 -0.8829,-5.36291 -0.9188,-5.36305 -0.037,-1.9e-4 -0.4264,2.2643 -0.9053,5.26937 l -0.056,0.35131 h 0.9597 0.9597 z m 3.859,-7.70543 h 1.1227 v 10.82042 h 3.0455 v 1.19922 h -4.1682 z m -55.7882,-3.96577 c -0.5562,-0.18339 -0.8051,-0.32948 -1.1926,-0.69986 -0.6388,-0.61054 -0.6445,-0.66325 -0.6143,-5.65079 l 0.027,-4.43863 0.2342,-0.4172 c 0.7769,-1.38397 2.9106,-1.73184 4.2687,-0.69597 0.3526,0.269 0.6965,0.838 0.6965,1.15265 0,0.14484 -0.1104,0.22025 -0.4854,0.33162 -0.6578,0.19534 -0.678,0.19076 -0.8138,-0.18463 -0.074,-0.20566 -0.2305,-0.38701 -0.4169,-0.48426 -0.4093,-0.21349 -1.3317,-0.21182 -1.7342,0.003 -0.571,0.30499 -0.5781,0.36536 -0.5781,4.88511 0,4.44564 0.01,4.52714 0.5259,4.87416 0.3729,0.25026 1.3705,0.25355 1.782,0.006 0.5281,-0.31778 0.5963,-0.60853 0.5963,-2.54116 v -1.72996 h -0.609 -0.6089 v -0.60894 -0.60893 h 1.2246 1.2246 l -0.031,2.55286 c -0.034,2.81468 -0.066,2.99205 -0.6553,3.60056 -0.6004,0.62039 -1.9796,0.93811 -2.8403,0.65433 z m -11.1014,-6.19882 v -6.04254 h 0.5621 0.5621 v 5.43361 5.43361 h 1.4989 1.499 v 0.60893 0.60894 h -2.0611 -2.061 z m 5.8084,0 v -6.04254 h 0.6089 0.6089 v 6.04254 6.04255 h -0.6089 -0.6089 z m 10.6117,5.69124 c 0.028,-0.19322 0.2631,-1.46848 0.5233,-2.83391 0.2601,-1.36543 0.7281,-3.83163 1.04,-5.48045 0.3118,-1.64882 0.5886,-3.09271 0.615,-3.20864 0.044,-0.19363 0.1008,-0.21078 0.6958,-0.21078 0.5359,0 0.656,0.0283 0.696,0.16394 0.027,0.0902 0.3436,1.72377 0.7043,3.63021 1.0413,5.50262 1.5074,7.95051 1.5474,8.127 0.032,0.1427 -0.039,0.16394 -0.5525,0.16394 h -0.5896 l -0.2564,-1.33426 c -0.141,-0.73384 -0.2768,-1.38728 -0.3017,-1.45208 -0.033,-0.0862 -0.3689,-0.11783 -1.2512,-0.11783 -1.1743,0 -1.2074,0.006 -1.2535,0.21079 -0.026,0.11593 -0.1338,0.67452 -0.2394,1.2413 -0.1056,0.56678 -0.2124,1.12536 -0.2372,1.2413 -0.041,0.19067 -0.1,0.21078 -0.6179,0.21078 h -0.5726 z m 3.817,-3.841 c 0,-0.21168 -0.8955,-5.45702 -0.9364,-5.45697 -0.027,3e-5 -0.2317,1.12774 -0.4552,2.50602 -0.2235,1.37828 -0.4287,2.62189 -0.4559,2.76359 l -0.05,0.25762 h 0.9478 c 0.5212,0 0.9484,-0.0316 0.9493,-0.0703 z"
                 style="fill:#004a79;fill-opacity:1;stroke-width:0.0936829"
                 sodipodi:nodetypes="ccsccccccsccccscccccccscscccccccsccccccccccsccccsccccccscccccccscccccccccccccccccccccsccccccccccccccccccccccccccccccccccccccccccsccccccsccccsccscscccsssccccccccssccccccccccccccccccscccccccscccscscccscccsccccscscsccccccccccccccscccccscccscccscccccccsssccscscccccccccccccccccsccccscsscccsscccscccccccccsccccccsccccccccccccccscccsccccccccccccccccccscscccccccccccscccccccccscccccccccccscsccccscccccscsccccscccccccscscccscccccccccccscsccccsccscccccccccccccccccccccccccccccccccccccscccscccscscscccssccscc" />
            </g>
          </g>
        </g>
      </g>
    </g>
  </g>
</svg>
